<svg width="473" height="473" viewBox="0 0 473 473" fill="none" xmlns="http://www.w3.org/2000/svg">
<mask id="path-1-inside-1_1424_2130" fill="white">
<path d="M473 236.5C473 367.115 367.115 473 236.5 473C105.885 473 0 367.115 0 236.5C0 105.885 105.885 0 236.5 0C367.115 0 473 105.885 473 236.5ZM7.11813 236.5C7.11813 363.184 109.816 465.882 236.5 465.882C363.184 465.882 465.882 363.184 465.882 236.5C465.882 109.816 363.184 7.11813 236.5 7.11813C109.816 7.11813 7.11813 109.816 7.11813 236.5Z"/>
</mask>
<path d="M473 236.5C473 367.115 367.115 473 236.5 473C105.885 473 0 367.115 0 236.5C0 105.885 105.885 0 236.5 0C367.115 0 473 105.885 473 236.5ZM7.11813 236.5C7.11813 363.184 109.816 465.882 236.5 465.882C363.184 465.882 465.882 363.184 465.882 236.5C465.882 109.816 363.184 7.11813 236.5 7.11813C109.816 7.11813 7.11813 109.816 7.11813 236.5Z" stroke="#DF6951" stroke-width="2" stroke-dasharray="86 86" mask="url(#path-1-inside-1_1424_2130)"/>
</svg>
