<svg width="12" height="12" viewBox="0 0 12 12" fill="none" xmlns="http://www.w3.org/2000/svg">
<mask id="mask0_566_47" style="mask-type:luminance" maskUnits="userSpaceOnUse" x="0" y="0" width="12" height="12">
<path d="M12 0H0V12H12V0Z" fill="white"/>
</mask>
<g mask="url(#mask0_566_47)">
<path d="M3.5625 5.625C3.67375 5.625 3.7825 5.65799 3.87501 5.7198C3.96751 5.78161 4.03961 5.86945 4.08218 5.97224C4.12476 6.07502 4.1359 6.18812 4.11419 6.29724C4.09249 6.40635 4.03891 6.50658 3.96025 6.58525C3.88158 6.66391 3.78135 6.71749 3.67224 6.73919C3.56312 6.7609 3.45002 6.74976 3.34724 6.70718C3.24445 6.66461 3.15661 6.59251 3.0948 6.50001C3.03299 6.40751 3 6.29876 3 6.1875C3 6.03832 3.05926 5.89524 3.16475 5.78975C3.27024 5.68426 3.41332 5.625 3.5625 5.625ZM3.5625 4.875C3.30291 4.875 3.04915 4.95198 2.83331 5.0962C2.61748 5.24041 2.44924 5.4454 2.34991 5.68522C2.25057 5.92506 2.22457 6.18895 2.27522 6.44356C2.32586 6.69815 2.45086 6.93203 2.63442 7.11558C2.81798 7.29913 3.05185 7.42414 3.30644 7.47478C3.56104 7.52542 3.82495 7.49943 4.06477 7.40009C4.3046 7.30075 4.50958 7.13252 4.6538 6.91669C4.79803 6.70085 4.875 6.44709 4.875 6.1875C4.875 5.8394 4.73672 5.50556 4.49058 5.25942C4.24444 5.01328 3.9106 4.875 3.5625 4.875Z" fill="#515151"/>
<path d="M9.85718 5.1422H6.42857C6.20124 5.1422 5.98322 5.23252 5.82248 5.39328C5.66174 5.55404 5.57143 5.77208 5.57143 5.99943V8.57107H0.857145V3.68492L6 0.916088L10.9922 3.6017C11.2006 3.71384 11.4606 3.63532 11.5721 3.42652C11.6831 3.21868 11.6051 2.96022 11.3976 2.8485L6.20143 0.0502906C6.13942 0.0172702 6.07025 0 6 0C5.92975 0 5.86058 0.0172702 5.79857 0.0502906L0.227143 3.05058C0.158709 3.08702 0.101442 3.14135 0.0614416 3.20777C0.0214415 3.27418 0.000206875 3.35022 0 3.42776V12H0.857145V9.42833H11.1428V12H12V7.28527C12 6.71689 11.7743 6.17179 11.3724 5.76989C10.9705 5.36799 10.4255 5.1422 9.85718 5.1422ZM6.42857 8.57107V5.99943H9.85718C10.1981 5.99943 10.5252 6.1349 10.7662 6.37604C11.0074 6.61718 11.1428 6.94424 11.1428 7.28527V8.57107H6.42857Z" fill="#515151"/>
</g>
</svg>
