<svg width="20" height="20" viewBox="0 0 20 20" fill="none" xmlns="http://www.w3.org/2000/svg">
<path d="M13.889 2.58274C14.0177 2.45231 14.0898 2.27646 14.0898 2.09324C14.0898 1.91002 14.0177 1.73417 13.889 1.60374C13.8258 1.53949 13.7503 1.48847 13.6672 1.45364C13.584 1.41881 13.4947 1.40088 13.4045 1.40088C13.3144 1.40088 13.2251 1.41881 13.1419 1.45364C13.0587 1.48847 12.9833 1.53949 12.92 1.60374L5.09003 9.51174C4.96135 9.64217 4.88921 9.81802 4.88921 10.0012C4.88921 10.1844 4.96135 10.3603 5.09003 10.4907L12.92 18.3987C12.9833 18.4629 13.0587 18.514 13.1419 18.5488C13.2251 18.5836 13.3144 18.6016 13.4045 18.6016C13.4947 18.6016 13.584 18.5836 13.6672 18.5488C13.7503 18.514 13.8258 18.4629 13.889 18.3987C14.0177 18.2683 14.0898 18.0924 14.0898 17.9092C14.0898 17.726 14.0177 17.5501 13.889 17.4197L6.74803 10.0007L13.889 2.58274Z" fill="white"/>
</svg>
