<svg width="21" height="20" viewBox="0 0 21 20" fill="none" xmlns="http://www.w3.org/2000/svg">
<path d="M6.30099 17.4173C6.17229 17.5477 6.10019 17.7235 6.10019 17.9068C6.10019 18.09 6.17229 18.2658 6.30099 18.3963C6.36419 18.4605 6.43969 18.5115 6.52279 18.5464C6.60599 18.5812 6.69529 18.5991 6.78549 18.5991C6.87559 18.5991 6.96489 18.5812 7.04809 18.5464C7.13129 18.5115 7.20669 18.4605 7.26999 18.3963L15.1 10.4883C15.2286 10.3578 15.3008 10.182 15.3008 9.99876C15.3008 9.81556 15.2286 9.63966 15.1 9.50926L7.26999 1.60126C7.20669 1.53706 7.13129 1.48596 7.04809 1.45116C6.96489 1.41636 6.87559 1.39836 6.78549 1.39836C6.69529 1.39836 6.60599 1.41636 6.52279 1.45116C6.43969 1.48596 6.36419 1.53706 6.30099 1.60126C6.17229 1.73166 6.10019 1.90756 6.10019 2.09076C6.10019 2.27396 6.17229 2.44986 6.30099 2.58026L13.442 9.99926L6.30099 17.4173Z" fill="white"/>
</svg>
