<svg width="95" height="54" viewBox="0 0 95 54" fill="none" xmlns="http://www.w3.org/2000/svg">
<rect width="95" height="54" rx="9" fill="#E7F2F5"/>
<path d="M59.007 27.0004C59.0064 24.7065 58.3486 22.4609 57.1114 20.5293C55.8741 18.5977 54.1093 17.061 52.0259 16.1012C49.9425 15.1414 47.6276 14.7987 45.3555 15.1137C43.0833 15.4286 40.949 16.388 39.2052 17.8783C37.4613 19.3685 36.181 21.3273 35.5158 23.5226C34.8506 25.7179 34.8283 28.0578 35.4517 30.2654C36.075 32.4729 37.3178 34.4556 39.033 35.9788C40.7482 37.502 42.8639 38.5018 45.1296 38.8599V30.4681H42.0834V27.0004H45.1283V24.357C45.0629 23.7394 45.1342 23.115 45.337 22.5281C45.5398 21.9411 45.8693 21.406 46.302 20.9605C46.7347 20.5151 47.2601 20.1703 47.8409 19.9505C48.4217 19.7308 49.0438 19.6415 49.663 19.6889C50.5643 19.7017 51.4635 19.7811 52.3531 19.9263V22.8792H50.838C50.5803 22.8452 50.3182 22.8695 50.0712 22.9504C49.8241 23.0314 49.5985 23.1668 49.4109 23.3467C49.2232 23.5267 49.0785 23.7465 48.9873 23.9899C48.8961 24.2334 48.8608 24.4942 48.8841 24.7531V27.0004H52.2184L51.6849 30.4681H48.8841V38.8546C51.7062 38.4069 54.276 36.9672 56.1316 34.7943C57.9872 32.6214 59.0068 29.8578 59.007 27.0004Z" fill="#009EE2"/>
<path d="M51.68 30.4733L52.2134 27.0056H48.8791V24.7543C48.8559 24.4954 48.8912 24.2346 48.9824 23.9911C49.0736 23.7477 49.2183 23.5279 49.4059 23.348C49.5935 23.168 49.8192 23.0326 50.0662 22.9516C50.3133 22.8707 50.5753 22.8464 50.833 22.8804H52.3468V19.9275C51.4572 19.7823 50.558 19.7029 49.6567 19.6901C49.0375 19.6427 48.4154 19.732 47.8346 19.9517C47.2538 20.1715 46.7284 20.5163 46.2957 20.9617C45.863 21.4072 45.5336 21.9423 45.3307 22.5293C45.1279 23.1162 45.0566 23.7406 45.122 24.3582V27.0016H42.0771V30.4693H45.122V38.8558C45.7418 38.9537 46.3684 39.0019 46.9959 38.9998C47.6237 38.9987 48.2505 38.9505 48.8711 38.8558V30.4693L51.68 30.4733Z" fill="white"/>
</svg>
