<svg width="95" height="54" viewBox="0 0 95 54" fill="none" xmlns="http://www.w3.org/2000/svg">
<rect width="95" height="54" rx="9" fill="#E7F2F5"/>
<path d="M59.5145 27.2733C59.5159 26.4562 59.4464 25.6405 59.3065 24.8354H47.9971V29.4552H54.4772C54.3443 30.1934 54.0631 30.8971 53.6507 31.5236C53.2383 32.1502 52.7032 32.6867 52.0777 33.1008V36.0985H55.9441C57.1237 34.9593 58.0511 33.5851 58.6661 32.0649C59.2811 30.5447 59.5701 28.9123 59.5145 27.2733Z" fill="#009EE2"/>
<path d="M47.994 38.9955C50.9167 39.0774 53.7606 38.0413 55.9458 36.0986L52.0794 33.1009C51.1485 33.6968 50.094 34.0727 48.996 34.2003C47.8981 34.3278 46.7855 34.2035 45.7427 33.8369C44.6999 33.4702 43.7544 32.8708 42.9779 32.0841C42.2013 31.2975 41.6142 30.3443 41.2611 29.2969H37.2764V32.3874C38.2751 34.3738 39.8061 36.0436 41.6986 37.2104C43.5911 38.3773 45.7706 38.9953 47.994 38.9955Z" fill="#34A853"/>
<path d="M41.2609 29.2925C40.7585 27.8029 40.7585 26.1896 41.2609 24.7V21.6143H37.2762C36.437 23.2859 36 25.1305 36 27.001C36 28.8715 36.437 30.7162 37.2762 32.3878L41.2609 29.2925Z" fill="#FBBC04"/>
<path d="M47.994 19.7486C49.7045 19.7208 51.3575 20.3666 52.5961 21.5466L56.0242 18.1218C53.8512 16.0829 50.9734 14.9645 47.994 15.0009C45.7701 15.0015 43.5903 15.6203 41.6977 16.788C39.8052 17.9557 38.2744 19.6265 37.2764 21.6138L41.2611 24.7043C41.7249 23.2784 42.6237 22.0336 43.8313 21.1447C45.0389 20.2559 46.4946 19.7676 47.994 19.7486Z" fill="#EA4335"/>
</svg>
