<svg width="33" height="33" viewBox="0 0 33 33" fill="none" xmlns="http://www.w3.org/2000/svg">
<g clip-path="url(#clip0_2684_1382)">
<g clip-path="url(#clip1_2684_1382)">
<path d="M27.1466 0.969971H5.81331C2.86779 0.969971 0.47998 3.35779 0.47998 6.3033V27.6366C0.47998 30.5822 2.86779 32.97 5.81331 32.97H27.1466C30.0922 32.97 32.48 30.5822 32.48 27.6366V6.3033C32.48 3.35779 30.0922 0.969971 27.1466 0.969971Z" fill="#FF6300"/>
<path d="M4.5607 26.2425L12.089 13.4713C12.2126 13.2669 12.2933 13.1809 12.417 13.1809C12.5406 13.1809 12.6267 13.2885 12.7289 13.4498C13.6609 15.0205 14.1549 16.8124 14.1592 18.6389C14.1592 23.4301 10.3951 26.7372 4.97475 26.7372C4.87259 26.7372 4.48004 26.7372 4.48004 26.4898C4.47846 26.4006 4.50686 26.3136 4.5607 26.2425Z" fill="#5C0FD9"/>
<path d="M21.8111 14.423L28.4038 26.1993C28.5705 26.4898 28.4683 26.7372 28.0543 26.7372C23.2147 26.7372 20.967 24.9196 19.1494 21.6717L14.0678 12.584C13.8233 12.2214 13.6802 11.7999 13.6538 11.3633C13.7059 10.8247 13.8906 10.3074 14.1915 9.85768L14.8314 8.72307C15.7402 7.04535 16.7297 6.30328 19.0634 6.30328H20.7197C20.967 6.30328 20.9885 6.49148 20.8649 6.6313C20.2906 7.31988 19.9953 8.19854 20.0367 9.0941C20.0367 10.3309 20.4938 12.0463 21.8111 14.423Z" fill="#5C0FD9"/>
</g>
</g>
<defs>
<clipPath id="clip0_2684_1382">
<rect width="32" height="32" fill="white" transform="translate(0.47998 0.969971)"/>
</clipPath>
<clipPath id="clip1_2684_1382">
<rect width="32" height="32" fill="white" transform="translate(0.47998 0.969971)"/>
</clipPath>
</defs>
</svg>
