<svg width="33" height="33" viewBox="0 0 33 33" fill="none" xmlns="http://www.w3.org/2000/svg">
<g clip-path="url(#clip0_2684_1473)">
<g clip-path="url(#clip1_2684_1473)">
<g clip-path="url(#clip2_2684_1473)">
<path d="M27.1466 0.469971H5.81331C2.86779 0.469971 0.47998 2.85779 0.47998 5.8033V27.1366C0.47998 30.0822 2.86779 32.47 5.81331 32.47H27.1466C30.0922 32.47 32.48 30.0822 32.48 27.1366V5.8033C32.48 2.85779 30.0922 0.469971 27.1466 0.469971Z" fill="#001B94"/>
<path d="M22.3113 14.0754C22.7905 14.0754 23.1794 13.6857 23.1794 13.2048C23.1794 12.724 22.7905 12.3339 22.3113 12.3339C21.8318 12.3339 21.4429 12.724 21.4429 13.2048C21.4429 13.6857 21.8318 14.0754 22.3113 14.0754Z" fill="white"/>
<path d="M19.706 11.4632C20.1855 11.4632 20.5746 11.0731 20.5746 10.5923C20.5746 10.1117 20.1855 9.72168 19.706 9.72168C19.2266 9.72168 18.8379 10.1117 18.8379 10.5923C18.8379 11.0731 19.2266 11.4632 19.706 11.4632Z" fill="white"/>
<path d="M22.3113 11.4632C22.7905 11.4632 23.1794 11.0731 23.1794 10.5923C23.1794 10.1117 22.7905 9.72168 22.3113 9.72168C21.8318 9.72168 21.4429 10.1117 21.4429 10.5923C21.4429 11.0731 21.8318 11.4632 22.3113 11.4632Z" fill="white"/>
<path d="M17.1014 11.4632C17.5806 11.4632 17.9696 11.0731 17.9696 10.5923C17.9696 10.1117 17.5806 9.72168 17.1014 9.72168C16.6218 9.72168 16.2329 10.1117 16.2329 10.5923C16.2329 11.0731 16.6218 11.4632 17.1014 11.4632Z" fill="white"/>
<path d="M24.6614 9.03148C25.0006 8.6911 25.0006 8.13992 24.6614 7.79985C24.3224 7.45978 23.7728 7.45978 23.4333 7.79985C23.0945 8.13992 23.0945 8.6911 23.4333 9.03148C23.7728 9.37124 24.3224 9.37124 24.6614 9.03148Z" fill="white"/>
<path d="M26.8323 7.28995C27.1714 6.94959 27.1714 6.3984 26.8323 6.05833C26.4933 5.71827 25.9435 5.71827 25.6042 6.05833C25.2654 6.3984 25.2654 6.94959 25.6042 7.28995C25.9435 7.62972 26.4933 7.62972 26.8323 7.28995Z" fill="white"/>
<path d="M14.0619 11.4632C14.5415 11.4632 14.9305 11.0731 14.9305 10.5923C14.9305 10.1117 14.5415 9.72168 14.0619 9.72168C13.5825 9.72168 13.1938 10.1117 13.1938 10.5923C13.1938 11.0731 13.5825 11.4632 14.0619 11.4632Z" fill="white"/>
<path d="M11.4573 11.4632C11.9368 11.4632 12.3255 11.0731 12.3255 10.5923C12.3255 10.1117 11.9368 9.72168 11.4573 9.72168C10.9778 9.72168 10.5889 10.1117 10.5889 10.5923C10.5889 11.0731 10.9778 11.4632 11.4573 11.4632Z" fill="white"/>
<path d="M23.1794 15.8168C23.1794 15.3362 22.7905 14.9461 22.3113 14.9461C21.8318 14.9461 21.4429 15.3362 21.4429 15.8168C21.4429 16.2976 21.8318 16.6877 22.3113 16.6877C22.7905 16.6877 23.1794 16.2976 23.1794 15.8168Z" fill="white"/>
<path d="M11.8911 24.5244C12.3706 24.5244 12.7596 24.1344 12.7596 23.6534C12.7596 23.1726 12.3706 22.7829 11.8911 22.7829C11.4119 22.7829 11.0229 23.1726 11.0229 23.6534C11.0229 24.1344 11.4119 24.5244 11.8911 24.5244Z" fill="white"/>
<path d="M9.28691 21.9121C9.7664 21.9121 10.1551 21.5221 10.1551 21.0416C10.1551 20.5607 9.7664 20.1707 9.28691 20.1707C8.8074 20.1707 8.41846 20.5607 8.41846 21.0416C8.41846 21.5221 8.8074 21.9121 9.28691 21.9121Z" fill="white"/>
<path d="M11.8911 21.9121C12.3706 21.9121 12.7596 21.5221 12.7596 21.0416C12.7596 20.5607 12.3706 20.1707 11.8911 20.1707C11.4119 20.1707 11.0229 20.5607 11.0229 21.0416C11.0229 21.5221 11.4119 21.9121 11.8911 21.9121Z" fill="white"/>
<path d="M6.68164 21.9121C7.16114 21.9121 7.55008 21.5221 7.55008 21.0416C7.55008 20.5607 7.16114 20.1707 6.68164 20.1707C6.20242 20.1707 5.81348 20.5607 5.81348 21.0416C5.81348 21.5221 6.20242 21.9121 6.68164 21.9121Z" fill="white"/>
<path d="M12.7596 26.2661C12.7596 25.7851 12.3706 25.3951 11.8911 25.3951C11.4119 25.3951 11.0229 25.7851 11.0229 26.2661C11.0229 26.7466 11.4119 27.1366 11.8911 27.1366C12.3706 27.1366 12.7596 26.7466 12.7596 26.2661Z" fill="white"/>
<path d="M23.1794 18.4293C23.1794 17.9485 22.7905 17.5583 22.3113 17.5583C21.8318 17.5583 21.4429 17.9485 21.4429 18.4293C21.4429 18.9101 21.8318 19.2998 22.3113 19.2998C22.7905 19.2998 23.1794 18.9101 23.1794 18.4293Z" fill="white"/>
<path d="M23.1794 21.4766C23.1794 20.9958 22.7905 20.606 22.3113 20.606C21.8318 20.606 21.4429 20.9958 21.4429 21.4766C21.4429 21.9574 21.8318 22.3476 22.3113 22.3476C22.7905 22.3476 23.1794 21.9574 23.1794 21.4766Z" fill="white"/>
<path d="M15.7988 17.9939C16.2783 17.9939 16.6672 17.604 16.6672 17.1232C16.6672 16.6424 16.2783 16.2523 15.7988 16.2523C15.3193 16.2523 14.9307 16.6424 14.9307 17.1232C14.9307 17.604 15.3193 17.9939 15.7988 17.9939Z" fill="white"/>
<path d="M18.1493 15.5618C18.4884 15.2218 18.4884 14.6708 18.1493 14.3304C17.8098 13.9904 17.2604 13.9904 16.9213 14.3304C16.5822 14.6708 16.5822 15.2218 16.9213 15.5618C17.2604 15.902 17.8098 15.902 18.1493 15.5618Z" fill="white"/>
<path d="M20.3202 13.8204C20.6593 13.4804 20.6593 12.9293 20.3202 12.5889C19.9809 12.2489 19.4313 12.2489 19.0922 12.5889C18.7531 12.9293 18.7531 13.4804 19.0922 13.8204C19.4313 14.1604 19.9809 14.1604 20.3202 13.8204Z" fill="white"/>
<path d="M14.6761 19.4805C15.0153 19.1404 15.0153 18.5892 14.6761 18.2488C14.3367 17.9088 13.7871 17.9088 13.448 18.2488C13.1091 18.5892 13.1091 19.1404 13.448 19.4805C13.7871 19.8202 14.3367 19.8202 14.6761 19.4805Z" fill="white"/>
</g>
</g>
</g>
<defs>
<clipPath id="clip0_2684_1473">
<rect x="0.47998" y="0.469971" width="32" height="32" rx="2" fill="white"/>
</clipPath>
<clipPath id="clip1_2684_1473">
<rect width="32" height="32" fill="white" transform="translate(0.47998 0.469971)"/>
</clipPath>
<clipPath id="clip2_2684_1473">
<rect width="32" height="32" fill="white" transform="translate(0.47998 0.469971)"/>
</clipPath>
</defs>
</svg>
