<svg width="32" height="32" viewBox="0 0 32 32" fill="none" xmlns="http://www.w3.org/2000/svg">
<path d="M18.208 13.847C19.404 15.043 19.404 16.983 18.208 18.179C17.012 19.375 15.072 19.375 13.876 18.179C12.68 16.983 12.68 15.043 13.876 13.847C15.072 12.651 17.012 12.651 18.208 13.847ZM23.202 10.558C22.876 9.776 22.29 9.124 21.442 8.798C20.921 8.602 20.334 8.472 19.747 8.472C18.769 8.472 18.444 8.472 16.032 8.472C13.62 8.472 13.295 8.472 12.317 8.537C11.73 8.537 11.144 8.667 10.623 8.863C9.776 9.124 9.124 9.775 8.863 10.557C8.667 11.078 8.537 11.665 8.537 12.251C8.472 13.294 8.472 13.554 8.472 16.031C8.472 18.508 8.472 18.768 8.537 19.746C8.537 20.333 8.667 20.919 8.863 21.441C9.189 22.223 9.775 22.875 10.623 23.201C11.144 23.397 11.731 23.527 12.317 23.527C13.295 23.592 13.555 23.592 16.032 23.592C18.509 23.592 18.769 23.592 19.747 23.527C20.334 23.527 20.92 23.397 21.442 23.201C22.224 22.875 22.876 22.289 23.202 21.441C23.398 20.92 23.528 20.333 23.528 19.746C23.593 18.768 23.593 18.508 23.593 16.031C23.593 13.554 23.593 13.294 23.528 12.316C23.463 11.729 23.398 11.143 23.202 10.556V10.558ZM16.033 20.725C13.426 20.725 11.341 18.639 11.341 16.033C11.341 13.427 13.427 11.341 16.033 11.341C18.64 11.341 20.725 13.427 20.725 16.033C20.725 18.639 18.639 20.725 16.033 20.725ZM20.921 12.187C20.334 12.187 19.813 11.666 19.813 11.079C19.813 10.492 20.334 9.971 20.921 9.971C21.508 9.971 22.029 10.492 22.029 11.079C22.029 11.731 21.508 12.187 20.921 12.187ZM16.033 0C7.169 0 0 7.169 0 16.033C0 24.897 7.169 32.066 16.033 32.066C24.897 32.066 32.066 24.897 32.066 16.033C32.001 7.169 24.832 0 16.033 0ZM25.157 19.813C25.157 20.595 25.027 21.312 24.701 22.029C24.245 23.267 23.267 24.245 22.029 24.701C21.312 24.962 20.53 25.092 19.813 25.157C18.835 25.222 18.51 25.222 16.033 25.222C13.556 25.222 13.231 25.222 12.253 25.157C11.471 25.157 10.754 25.027 10.037 24.701C8.799 24.245 7.821 23.267 7.365 22.029C7.104 21.312 6.974 20.53 6.909 19.813C6.844 18.835 6.844 18.51 6.844 16.033C6.844 13.556 6.844 13.231 6.909 12.253C6.909 11.471 7.039 10.754 7.365 10.037C7.821 8.799 8.799 7.821 10.037 7.365C10.754 7.104 11.536 6.974 12.253 6.909C13.231 6.844 13.556 6.844 16.033 6.844C18.51 6.844 18.835 6.844 19.813 6.909C20.595 6.909 21.312 7.039 22.029 7.365C23.267 7.821 24.245 8.799 24.701 10.037C24.962 10.754 25.092 11.536 25.157 12.253C25.222 13.231 25.222 13.556 25.222 16.033C25.222 18.51 25.222 18.835 25.157 19.813Z" fill="#B7B7B7"/>
</svg>
