<svg width="168" height="136" viewBox="0 0 168 136" fill="none" xmlns="http://www.w3.org/2000/svg">
<path fill-rule="evenodd" clip-rule="evenodd" d="M159.315 84.0284V85.695V99.2268V100.336V102.555V124.83V132.325L156.61 136H164.172H175.76H185.821L183.601 132.325H183.532V103.111L184.989 99.0869H179.785H181.45H183.463C183.948 93.1891 188.944 88.4707 194.91 88.4707C201.017 88.4707 205.944 93.1891 206.429 99.0869H208.442H210.177H204.903L206.361 103.111V132.325H206.291L203.655 136H213.994H225.165H232.798L230.647 132.325V124.83V102.555V100.336V99.2268V85.695V84.0284V79.242V78.6163L236.96 73.6899H237.168V73.4811V73.2042H230.647V68.4162V67.1V65.9886V65.2261H159.315V65.9886V67.1V68.4162V73.2042H152.723V73.3442V73.6899H153.07L159.315 78.6163V79.242V84.0284Z" fill="#009EE2"/>
<path fill-rule="evenodd" clip-rule="evenodd" d="M157.302 94.4378V102.069V102.695V103.318H156.817V116.085V116.918V121.708V122.539V133.989V135.446V135.999H73.3438V135.446V133.989V122.539V121.708V116.918V116.085V103.318H72.4405V102.694V102.069V94.437V93.3968H73.6199V86.2493V68.9008V67.791V52.2485V51.1355V19.2887H71.9556V17.206H75.2857V14.0838H76.4659V13.114H76.8124L78.131 10.7545L79.5184 8.25567L80.837 10.7545L82.1564 13.114H82.5037V14.0838H102.209V17.206H105.609V19.2887H103.736V51.1355V52.2485V53.0814H111.924L113.243 43.1566L113.521 40.521V26.3658H111.3V24.6296H113.521V22.7557H115.395V24.6296H117.614V26.3658H115.395V40.1737L115.811 43.1558L117.129 53.0806H126.357V52.2477V51.1348V19.2879H124.691V17.2052H128.023V14.083H147.313V13.1133H147.66L148.979 10.7537L150.296 8.25488L151.684 10.7537L152.934 13.1133H153.35V14.083H154.947V17.2052H158.346V19.2879H156.473V51.1348V52.2477V67.7903V68.9V86.2484V93.396H157.305V94.4378H157.302ZM126.355 56.2043H117.057V62.034L117.612 62.9334L120.804 67.9318H126.355V67.7918V56.2043ZM111.921 56.2043H103.734V67.7918V67.9318H108.175L111.298 62.9334L111.921 62.034V56.2043ZM124.897 81.7389C124.62 76.7429 120.734 72.7886 115.808 72.4421C120.734 72.7878 124.62 76.8125 124.897 81.7389ZM78.6167 68.6255H98.7392V67.7926V53.3598H78.6167V67.7926V68.6255ZM85.8323 55.789C85.1393 55.789 84.5145 56.2043 84.5145 56.6884V67.0285H87.1509V56.6884C87.1501 56.2043 86.5956 55.789 85.8323 55.789ZM91.0363 55.789C90.3426 55.789 89.7177 56.2043 89.7177 56.6884V67.0285H92.3542V56.6884C92.3542 56.2043 91.7997 55.789 91.0363 55.789ZM82.8486 73.6904H80.1425V70.9843H82.8486V73.6904ZM97.0733 73.6904H94.2985V70.9843H97.0733V73.6904ZM138.567 55.789C137.874 55.789 137.249 56.2043 137.249 56.6884V67.0285H139.887V56.6884C139.886 56.2043 139.33 55.789 138.567 55.789ZM143.772 55.789C143.077 55.789 142.522 56.2043 142.522 56.6884V67.0285H145.09V56.6884C145.09 56.2043 144.535 55.789 143.772 55.789ZM135.584 73.6904H132.877V70.9843H135.584V73.6904ZM149.809 73.6904H147.102V70.9843H149.809V73.6904ZM78.4071 133.989H80.2802V115.67C80.2802 110.05 88.5375 105.47 88.5375 105.47C88.5375 105.47 96.7957 110.05 96.7957 115.67V133.989H99.5017V122.539V121.708V116.918V116.085V103.318H78.4071V116.085V116.917V121.707V122.538V133.989ZM104.567 133.989H106.717V115.67C106.717 110.05 114.975 105.47 114.975 105.47C114.975 105.47 123.233 110.05 123.233 115.67V133.989H125.592V122.539V121.708V116.918V116.085V103.318H104.567V116.085V116.917V121.707V122.538V133.989ZM130.726 133.989H133.086V115.67C133.086 110.05 141.343 105.47 141.343 105.47C141.343 105.47 149.6 110.05 149.6 115.67V133.989H151.681V122.539V121.708V116.918V116.085V103.318H130.727V116.085V116.917V121.707V122.538L130.726 133.989Z" fill="#009EE2"/>
<path fill-rule="evenodd" clip-rule="evenodd" d="M13.1823 22.5517L14.2929 32.959L51.1373 28.9351L50.0283 18.527L13.1823 22.5517ZM42.5343 117.544C23.3136 117.544 6.72926 125.177 0.00012207 136H85.2085C78.3386 125.177 61.8247 117.544 42.5343 117.544ZM58.909 89.4418L19.7746 93.7449L19.9818 96.1037L59.1874 91.8014L58.909 89.4418ZM43.7833 2.08116L15.6115 5.13445L15.4035 3.05408L43.5761 0L43.7833 2.08116ZM50.7909 14.9873L11.5861 19.22L11.8637 21.6484L50.9989 17.3461L50.7909 14.9873ZM52.3871 29.8361L13.2519 34.1392L13.46 36.5691L52.6656 32.2661L52.3871 29.8361ZM53.9834 44.7553L14.8474 49.0576L15.125 51.4164L54.2603 47.1853L53.9834 44.7553ZM55.6485 59.6057L16.4444 63.9065L16.7909 66.3349L55.9261 62.0341L55.6485 59.6057ZM57.2447 74.5226L18.1095 78.8257L18.3872 81.2541L57.5216 76.9494L57.2447 74.5226ZM19.2889 17.6933L17.9703 5.76012L41.6318 3.19172L42.9504 15.1249L19.2889 17.6933ZM35.3868 9.0895L35.8044 13.3222L39.8979 12.9069L39.4802 8.67342C39.341 7.4948 38.3016 6.5915 37.1918 6.72993C36.0812 6.86914 35.2475 7.91011 35.3868 9.0895ZM21.3012 10.6865L21.7869 14.9177L25.8804 14.432L25.3955 10.2009C25.2547 9.01989 24.2153 8.18774 23.1055 8.32617C21.995 8.39578 21.162 9.43518 21.3012 10.6865ZM28.3096 9.92165L28.7945 14.1551L32.888 13.6694L32.4031 9.43597C32.3335 8.25735 31.2933 7.35403 30.1131 7.56441C29.0025 7.63402 28.24 8.67343 28.3096 9.92165ZM46.2125 21.0266L46.9743 27.8934L49.4034 27.6165L48.6409 20.7474C48.5705 20.1921 48.016 19.776 47.3223 19.8441C46.6278 19.9137 46.1429 20.4009 46.2125 21.0266ZM22.411 84.5147L23.244 91.3853L25.6035 91.1069L24.8402 84.2378C24.7706 83.6817 24.2161 83.2672 23.5216 83.3353C22.8975 83.4745 22.411 83.9609 22.411 84.5147ZM25.8116 84.0978L26.5741 91.0389L29.0017 90.7597L28.2392 83.8913C28.1704 83.3353 27.6143 82.92 26.9214 82.9896C26.2284 83.0584 25.742 83.6144 25.8116 84.0978ZM29.2113 83.8209L29.9747 90.6228L32.3342 90.4132L31.6397 83.4745C31.5701 82.9192 30.9468 82.5711 30.2523 82.6415C29.6282 82.7119 29.1425 83.1984 29.2113 83.8209ZM32.5415 83.4049L33.3064 90.2716L35.734 89.9948L34.9707 83.128C34.9011 82.5704 34.3458 82.2239 33.6528 82.2239C32.9583 82.3639 32.4734 82.8511 32.5415 83.4049ZM35.9428 82.9888L36.7054 89.926L39.0649 89.6491L38.372 82.7815C38.3024 82.2247 37.6775 81.8086 37.0526 81.8782C36.3589 81.9478 35.8732 82.5008 35.9428 82.9888ZM39.273 82.7119L40.0363 89.5099L42.4655 89.3018L41.771 82.3631C41.7014 81.8078 41.0781 81.4621 40.3828 81.531C39.6898 81.6006 39.2034 82.0855 39.273 82.7119ZM42.6735 82.2943L43.4353 89.1634L45.8645 88.8865L45.1019 82.0855C45.0331 81.4621 44.4082 81.1149 43.7841 81.1149C43.0888 81.2541 42.6039 81.739 42.6735 82.2943ZM46.0733 81.9478L46.767 88.8162L49.265 88.5401L48.5009 81.6686C48.4313 81.1149 47.8072 80.6996 47.1135 80.7692C46.4894 80.838 46.0029 81.3918 46.0733 81.9478ZM49.4034 81.6006L50.1668 88.4705L52.596 88.1936L51.8326 81.3229C51.763 80.7692 51.1381 80.3531 50.514 80.4235C49.8883 80.4923 49.3338 80.9765 49.4034 81.6006ZM52.804 81.1853L53.4969 88.0536L55.9942 87.7752L55.2316 80.9765C55.1628 80.3524 54.6067 80.0059 53.9138 80.0059C53.2201 80.1459 52.7344 80.6292 52.804 81.1853ZM20.8155 69.4578L21.51 76.3269L24.0073 76.0501L23.2447 69.1786C23.1751 68.6256 22.6199 68.2784 21.9261 68.2784C21.2316 68.4168 20.7467 68.9017 20.8155 69.4578ZM24.1465 69.1113L24.9786 75.9796L27.3382 75.7028L26.5749 68.8321C26.5053 68.2784 25.9508 67.8631 25.2555 67.9327C24.6322 68 24.1465 68.5552 24.1465 69.1113ZM27.5463 68.7625L28.3096 75.634L30.7388 75.3563L29.9747 68.416C29.9058 67.9319 29.3513 67.5158 28.6568 67.5854C27.9631 67.6543 27.4767 68.1399 27.5463 68.7625ZM30.8772 68.3488L31.7086 75.2171L34.0681 75.0106L33.3752 68.1399C33.2368 67.5158 32.6815 67.1694 31.9878 67.1694C31.3621 67.307 30.8772 67.7927 30.8772 68.3488ZM34.2762 68L35.0411 74.8707L37.4687 74.5906L36.7046 67.7231C36.635 67.1694 36.0805 66.7517 35.386 66.8198C34.693 66.8886 34.2073 67.4462 34.2762 68ZM37.6767 67.6543L38.44 74.5226L40.7988 74.2442L40.1059 67.307C40.0363 66.8198 39.4106 66.4037 38.7873 66.4741C38.0928 66.5429 37.6071 67.0286 37.6767 67.6543ZM41.0077 67.239L41.771 74.1066L44.2002 73.8977L43.4353 67.0286C43.4353 66.4029 42.8127 66.0564 42.1175 66.0564C41.4237 66.1964 40.9396 66.6821 41.0077 67.239ZM44.4082 66.8886L45.1715 73.7593L47.5311 73.4817L46.8366 66.6117C46.7678 66.0564 46.1437 65.6404 45.5188 65.7804C44.8243 65.7796 44.3378 66.3349 44.4082 66.8886ZM47.8072 66.5429L48.5009 73.4136L50.9989 73.1352L50.2364 66.1964C50.1668 65.7108 49.5419 65.2947 48.8489 65.3643C48.2233 65.4339 47.6695 65.9196 47.8072 66.5429ZM51.1381 66.126L51.9015 72.9983L54.3306 72.7879L53.5673 65.9196C53.4977 65.2939 52.8728 64.9482 52.2479 64.9482C51.6246 65.0867 51.0677 65.5723 51.1381 66.126ZM19.1505 54.4009L19.913 61.27L22.3414 61.0612L21.5789 54.124C21.5101 53.5664 20.9548 53.2199 20.2611 53.2895C19.6354 53.3599 19.0809 53.8456 19.1505 54.4009ZM22.5495 54.0521L23.2447 60.9228L25.742 60.6451L24.9786 53.7752C24.909 53.2199 24.2857 52.8039 23.66 52.8742C22.9671 52.9431 22.4814 53.4968 22.5495 54.0521ZM25.8804 53.7064L26.6429 60.5755L29.0721 60.2987L28.3096 53.4295C28.24 52.8743 27.6847 52.4582 26.9917 52.5278C26.3661 52.5974 25.8804 53.0831 25.8804 53.7064ZM29.2809 53.2895L30.0435 60.1602L32.4727 59.9514L31.7078 53.0831C31.639 52.4574 31.0844 52.1117 30.3899 52.1805C29.6978 52.2501 29.2113 52.7343 29.2809 53.2895ZM32.6119 52.9431L33.4456 59.8122L35.8052 59.5354L35.1099 52.6654C34.9715 52.1109 34.4162 51.6941 33.7225 51.7637C33.0984 51.8341 32.6119 52.3878 32.6119 52.9431ZM36.0124 52.5974L36.775 59.4657L39.2034 59.1873L38.4408 52.3205C38.372 51.7645 37.8159 51.3468 37.123 51.4172C36.4277 51.486 35.9428 52.0413 36.0124 52.5974ZM39.4114 52.2502L40.1755 59.0481L42.5351 58.8409L41.8414 51.9733C41.7718 51.346 41.1477 51.0004 40.4532 51.07C39.8283 51.1372 39.3418 51.6253 39.4114 52.2502ZM42.7423 51.8341L43.5057 58.7009L45.9341 58.424L45.1715 51.5572C45.1715 50.9996 44.5466 50.5827 43.8529 50.7227C43.1584 50.7908 42.6735 51.2764 42.7423 51.8341ZM46.1429 51.486L46.9054 58.3552L49.265 58.0783L48.5697 51.2076C48.5009 50.6539 47.8768 50.2378 47.2519 50.3074C46.559 50.3747 46.0733 50.9307 46.1429 51.486ZM49.473 51.1372L50.2364 57.9391L52.7344 57.7318L51.9711 50.8604C51.9015 50.237 51.2781 49.8914 50.5836 49.961C49.8883 50.0282 49.4034 50.5147 49.473 51.1372ZM17.555 39.4129L18.2479 46.2108L20.6771 46.0036L19.9138 39.0664C19.9138 38.5087 19.2897 38.1631 18.6648 38.2303C17.9711 38.3007 17.4158 38.7887 17.555 39.4129ZM20.8852 38.9976L21.6485 45.8643L24.0777 45.5883L23.3128 38.7887C23.244 38.1638 22.6887 37.8174 21.9942 37.8174C21.3701 37.9542 20.8156 38.4399 20.8852 38.9976ZM24.2857 38.5815L24.9786 45.5186L27.4766 45.241L26.6437 38.3703C26.6437 37.8166 26.0204 37.4005 25.3963 37.5382C24.701 37.5382 24.2161 38.0942 24.2857 38.5815ZM27.6151 38.3007L28.38 45.1722L30.8076 44.8953L30.0443 37.9542C29.9747 37.4686 29.4202 37.0548 28.7264 37.1229C28.1016 37.1917 27.6151 37.6782 27.6151 38.3007ZM31.0156 37.8846L31.7782 44.7553L34.2074 44.4793L33.4448 37.6782C33.3752 37.0548 32.8199 36.7076 32.1262 36.7076C31.4317 36.8452 30.9468 37.3309 31.0156 37.8846ZM34.3458 37.5382L35.1787 44.4096L37.5383 44.132L36.8438 37.2605C36.7054 36.7068 36.1509 36.2915 35.4556 36.4292C34.8323 36.4292 34.3458 36.9845 34.3458 37.5382ZM37.7471 37.1917L38.5104 44.0632L40.9396 43.784L40.1747 36.9148C40.1059 36.3596 39.5498 35.945 38.8561 36.0131C38.1616 36.0827 37.6767 36.5692 37.7471 37.1917ZM41.1461 36.7748L41.9086 43.644L44.2682 43.3663L43.5753 36.5691C43.4345 35.945 42.88 35.5947 42.1863 35.5947C41.5622 35.7339 41.0773 36.2211 41.1461 36.7748ZM44.4762 36.4292L45.2404 43.296L47.6695 43.0199L46.9054 36.1515C46.8358 35.5939 46.2813 35.1786 45.5868 35.3178C44.8939 35.3178 44.4082 35.8715 44.4762 36.4292ZM47.8776 36.0827L48.6409 42.9503L50.9997 42.6734L50.3068 35.8043C50.2372 35.249 49.6115 34.8329 48.9874 34.9033C48.2937 34.9721 47.8072 35.4578 47.8776 36.0827ZM15.8884 24.3552L16.6533 31.2267L19.0809 30.9483L18.3175 24.0095C18.2479 23.5238 17.6246 23.1078 16.9301 23.1766C16.306 23.2462 15.8195 23.7326 15.8884 24.3552ZM19.2889 23.9383L19.9818 30.8098L22.411 30.5986L21.6485 23.7319C21.6485 23.1062 21.0236 22.7574 20.3987 22.7574C19.705 22.8974 19.1505 23.3846 19.2889 23.9383ZM22.6191 23.5927L23.3824 30.4602L25.8116 30.1833L25.0483 23.315C24.9786 22.7574 24.4241 22.3421 23.7289 22.4813C23.0359 22.4813 22.5494 23.0389 22.6191 23.5927ZM26.0196 23.2462L26.7133 30.1137L29.2106 29.8369L28.3792 22.9662C28.3792 22.4125 27.7535 21.9964 27.1294 22.0668C26.4349 22.1356 25.8804 22.6197 26.0196 23.2462ZM29.3513 22.8278L30.1139 29.6969L32.5415 29.4896L31.7782 22.6189C31.7086 21.9948 31.1541 21.6484 30.4596 21.6484C29.8355 21.7884 29.3513 22.2725 29.3513 22.8278ZM32.7503 22.4813L33.5136 29.3504L35.9428 29.0743L35.1795 22.2029C35.1099 21.6492 34.5554 21.2331 33.8609 21.3723C33.1672 21.3723 32.6815 21.926 32.7503 22.4813ZM36.0813 22.1356L36.8438 29.0047L39.273 28.7279L38.5104 21.8572C38.4408 21.3035 37.8855 20.8874 37.1918 20.957C36.5669 21.0266 36.0813 21.5099 36.0813 22.1356ZM39.4802 21.718L40.2443 28.5871L42.6735 28.3806L41.9086 21.5092C41.8398 20.8858 41.2853 20.5401 40.59 20.609C39.8979 20.6794 39.4114 21.1635 39.4802 21.718ZM42.812 21.3723L43.6449 28.2414L46.0021 27.9638L45.3092 21.0939C45.1707 20.5409 44.6147 20.1225 43.9217 20.2601C43.2968 20.2594 42.812 20.817 42.812 21.3723ZM14.7786 37.4686L15.8884 47.8086L52.7344 43.784L51.6246 33.4455L14.7786 37.4686ZM16.3748 52.3878L17.555 62.7278L54.4002 58.7016L53.2208 48.3639L16.3748 52.3878ZM18.0399 67.307L19.1505 77.6471L55.9942 73.6216L54.8844 63.2824L18.0399 67.307ZM19.6354 82.1543L20.8148 92.5647L57.5904 88.5401L56.4814 78.132L19.6354 82.1543ZM21.3012 97.0743L23.6608 119.002C24.2161 118.86 24.7706 118.723 25.3963 118.515L23.5912 102.486C23.4528 100.892 24.841 99.5035 26.7845 99.2266C28.7264 99.017 30.3915 100.126 30.5315 101.793L32.1958 117.198C32.8199 117.127 33.3752 117.058 34.0001 116.988L32.335 101.585C32.1966 99.9884 33.584 98.5329 35.4571 98.3233C37.331 98.1129 39.0657 99.2259 39.2042 100.822L40.9404 116.504C41.4949 116.434 42.0494 116.434 42.5351 116.434H42.7431L41.0084 100.612C40.87 99.017 42.2582 97.56 44.1306 97.3504C46.0741 97.1423 47.7391 98.2537 47.9472 99.8484L49.7507 116.781C50.3756 116.85 50.9997 116.918 51.6246 116.988L49.7507 99.6411C49.5427 98.1129 50.9997 96.5878 52.8736 96.3798C54.7467 96.1725 56.483 97.2815 56.6214 98.9458L58.7714 118.306C59.4659 118.443 60.2292 118.651 60.9229 118.86L58.1473 93.0504L21.3012 97.0743Z" fill="#009EE2"/>
</svg>
