<svg width="247" height="30" viewBox="0 0 247 30" fill="none" xmlns="http://www.w3.org/2000/svg">
<path fill-rule="evenodd" clip-rule="evenodd" d="M186.207 7.56192C151.816 4.5969 141.97 3.88224 122.819 2.96158C102.971 2.00748 88.7407 1.60015 66.1242 1.3388C60.8812 1.27821 55.2726 1.15937 48.7022 0.969499C24.5667 0.272016 19.8587 0.253206 11.9793 0.822204C8.0753 1.10427 4.70996 1.23514 2.83643 1.17812C1.17072 1.12729 0.863998 1.16722 0.837731 1.43821C0.814519 1.67768 3.44126 2.14408 4.9012 2.1596C5.42438 2.16532 6.8407 2.19229 8.04868 2.21986C9.25668 2.24727 11.9192 2.26471 13.9654 2.25855C18.7838 2.24386 21.0896 2.31546 29.3275 2.73555C43.1762 3.44178 53.6505 3.84575 66.5329 4.17051C71.2804 4.29013 77.584 4.44903 80.5408 4.52354C102.966 5.08846 130.308 6.30414 146.973 7.47751C167.197 8.90114 229.867 14.5012 228.772 14.7867C228.338 14.8999 221.061 15.3497 216.707 15.5324C212.707 15.7003 206.038 15.8552 197.84 15.9704C193.953 16.0252 188.616 16.1053 185.982 16.1485C176.086 16.3109 172.829 16.343 167.216 16.3341C141.36 16.2927 124.23 16.7802 100.313 18.238C86.0961 19.1044 74.3729 20.5447 61.2038 23.0429C53.7166 24.4632 52.9706 24.7721 53.5545 26.2103C53.9346 27.1461 57.5972 27.6176 65.0695 27.6926C78.725 27.8298 91.5386 28.1516 103.932 28.6686C111.705 28.993 112.736 29.021 120.662 29.123C123.623 29.1612 128.733 29.2929 132.019 29.416L137.994 29.6396L130.112 28.7355C118.168 27.3654 105.332 26.1341 101.083 25.9509C87.0165 25.3446 79.3491 25.1841 66.7949 25.2332C63.8026 25.2449 61.2814 25.2214 61.1921 25.1811C60.3312 24.7914 80.7038 22.1386 90.3733 21.3813C112.201 19.6715 134.575 18.9859 168.858 18.9759C171.989 18.975 178.279 18.9188 182.836 18.8511C187.393 18.7833 194.576 18.6775 198.798 18.6155C215.05 18.3776 219.906 18.1728 235.61 17.0629C245.669 16.352 245.723 16.3428 246.099 15.2706C246.513 14.0917 245.773 13.4669 243.517 13.0901C241.373 12.732 200.973 8.83491 186.207 7.56192ZM138.647 29.5799C138.83 29.6347 139.101 29.6596 139.249 29.6351C139.396 29.6106 139.246 29.5656 138.915 29.5353C138.584 29.5049 138.463 29.525 138.647 29.5799Z" fill="white"/>
</svg>
