<svg width="224" height="48" viewBox="0 0 224 48" fill="none" xmlns="http://www.w3.org/2000/svg">
<path fill-rule="evenodd" clip-rule="evenodd" d="M44.9427 17.4085C43.0116 19.2013 43.5659 18.9945 39.0817 17.6845C35.1487 16.4429 37.0122 16.0294 33.4959 18.0289C30.3217 19.8916 25.1487 21.7543 22.7333 23.2019C23.632 25.203 31.3564 31.7551 33.2192 34.445C32.528 34.7894 31.9768 35.0662 31.2188 35.4113C30.0457 35.9625 30.3217 35.9625 28.9426 35.1353C25.9075 33.4102 16.1811 27.8929 14.25 27.0641C11.6993 28.1681 4.93801 31.6175 2.59485 31.4791C1.49013 31.4107 -0.304166 31.1347 0.0441197 29.7548C0.938935 26.3753 7.00906 24.5118 10.9413 22.7875C12.5257 22.0987 12.1121 22.1679 12.4573 20.442C12.8732 18.5801 15.4939 5.06068 16.1143 4.37188C16.3903 4.16509 18.5282 3.26872 18.941 3.06114C19.1486 4.30347 19.2861 5.68261 19.3553 6.99257L20.0442 14.6487C20.0442 15.8902 20.2517 17.3385 20.4593 18.5109C22.252 17.6145 24.0456 16.8558 25.9083 15.9594C35.1495 11.5444 33.4967 14.511 35.6323 9.54486C36.8762 6.78578 36.8762 5.12986 39.5653 5.54501C39.0817 11.0624 40.5969 14.5118 44.9427 17.4085ZM42.9424 10.5804C41.9092 10.9256 42.3228 12.5107 43.4944 12.2355L45.0819 11.6843C46.0459 11.4076 45.7715 9.75244 44.5299 10.0968L42.9424 10.5804ZM222.622 47.7576C223.517 48.4472 224.553 47.0672 223.655 46.4461L222.966 45.8265C222.001 45.0669 221.035 46.5153 221.863 47.1372L222.622 47.7576ZM217.862 43.963C218.76 44.6533 219.793 43.2734 218.968 42.5846L217.587 41.5499C216.691 40.8595 215.655 42.1695 216.553 42.8598L217.862 43.963ZM212.482 39.7564C213.309 40.4459 214.413 39.136 213.516 38.4456L212.137 37.4109C211.241 36.7221 210.136 38.0328 211.102 38.7908L212.482 39.7564ZM206.963 35.8241C207.928 36.4461 208.828 34.9977 207.928 34.3766L206.551 33.4102C205.514 32.7906 204.619 34.239 205.584 34.8601L206.963 35.8241ZM201.308 31.9619C202.273 32.5831 203.17 31.1355 202.273 30.5136L200.827 29.6172C199.86 28.9968 198.964 30.4451 199.86 31.0647L201.308 31.9619ZM195.582 28.3064C196.48 28.9268 197.445 27.5477 196.48 26.8581L194.962 25.9617C194.134 25.4098 193.101 26.7889 194.134 27.4793L195.582 28.3064ZM189.72 24.8578C190.756 25.409 191.444 23.8915 190.549 23.4094L189.03 22.5123C187.997 22.0303 187.236 23.5471 188.203 24.0298L189.72 24.8578ZM183.721 21.6152C184.754 22.0987 185.514 20.6488 184.479 20.0976L182.963 19.3389C181.926 18.7877 181.238 20.3736 182.202 20.8579L183.721 21.6152ZM177.579 18.5809C178.615 19.0636 179.374 17.5461 178.34 17.0641L176.821 16.3046C175.856 15.8218 175.029 17.3393 176.062 17.8213L177.579 18.5809ZM171.443 15.7534C172.548 16.167 173.099 14.5802 172.063 14.1659L170.547 13.4763C169.442 13.0635 168.821 14.7186 169.857 15.063L171.443 15.7534ZM165.098 13.2011C166.131 13.6147 166.82 12.0287 165.718 11.5452L164.13 10.994C163.098 10.5804 162.477 12.1663 163.511 12.5799L165.098 13.2011ZM158.751 10.8556C159.925 11.2008 160.269 9.47645 159.302 9.20124L157.647 8.64849C156.474 8.30409 156.13 9.95845 157.096 10.3036L158.751 10.8556ZM152.268 8.7169C153.372 9.0613 153.784 7.40695 152.75 7.13096L151.094 6.64818C149.991 6.30222 149.509 7.95813 150.613 8.23412L152.268 8.7169ZM145.715 6.92494C146.682 7.20015 147.302 5.61421 146.128 5.26825L144.475 4.85544C143.231 4.58023 143.025 6.30378 144.06 6.51136L145.715 6.92494ZM139.095 5.40819C140.197 5.6142 140.472 3.8891 139.439 3.6823L137.713 3.33791C136.61 3.13111 136.333 4.78624 137.438 4.99226L139.095 5.40819ZM132.403 4.09744C133.436 4.30424 133.853 2.64756 132.678 2.44154C132.127 2.30316 131.576 2.23474 130.953 2.09636C129.988 1.95876 129.507 3.6139 130.678 3.82069C131.301 3.8891 131.852 4.02825 132.403 4.09744ZM125.642 3.06191C126.818 3.19952 126.955 1.54439 125.85 1.40756L124.196 1.19921C123.023 1.0616 122.883 2.78671 123.989 2.8559L125.642 3.06191ZM118.884 2.37156C119.987 2.50994 120.194 0.786396 119.023 0.648014L117.298 0.510409C116.264 0.441218 115.988 2.09636 117.228 2.23397L118.884 2.37156ZM112.125 1.95876C113.299 1.95876 113.229 0.234426 112.194 0.234426L110.468 0.164461C109.297 0.164461 109.297 1.82038 110.399 1.89034L112.125 1.95876ZM105.295 1.75196C106.4 1.75196 106.47 0.0960462 105.295 0.0268555C104.744 0.0268555 104.123 0.0268555 103.572 0.0268555C102.536 0.0268555 102.399 1.75196 103.572 1.75196C104.193 1.75196 104.744 1.75196 105.295 1.75196ZM98.4684 1.88956C99.7099 1.82037 99.5023 0.0952648 98.3999 0.163678L96.7433 0.233644C95.5709 0.302834 95.7101 2.02639 96.8124 1.95797L98.4684 1.88956ZM91.7079 2.23397C92.8134 2.16555 92.7442 0.441216 91.5703 0.57882L89.8436 0.716426C88.7412 0.785617 88.8796 2.44076 89.9828 2.37079L91.7079 2.23397ZM84.9497 2.92432C85.9829 2.78672 85.9153 1.0616 84.7421 1.19921C84.1894 1.2684 83.5698 1.33759 83.0186 1.40756C81.9823 1.47598 82.0515 3.2003 83.2262 3.06191C83.7766 2.9935 84.3278 2.92432 84.9497 2.92432ZM78.1901 3.7515C79.3616 3.5447 78.948 1.88957 77.9148 2.09636L76.1897 2.37156C75.0874 2.57836 75.431 4.23506 76.465 4.02826L78.1901 3.7515ZM71.4288 4.92385C72.5343 4.71705 72.2575 3.06192 71.1536 3.2695L69.4316 3.5447C68.3945 3.75149 68.6705 5.4766 69.7752 5.26825L71.4288 4.92385ZM64.809 6.30378C65.843 6.09699 65.5678 4.37265 64.3954 4.64864L62.7395 4.99304C61.5687 5.339 62.1192 6.92494 63.1531 6.64973L64.809 6.30378ZM58.1861 7.88894C59.2916 7.54532 58.8065 5.95938 57.7726 6.23459L56.0482 6.64896C54.945 6.99336 55.427 8.5793 56.5325 8.3041L58.1861 7.88894ZM51.6348 9.68325C52.6688 9.40804 52.2552 7.75134 51.1505 8.02888L49.4961 8.51088C48.4606 8.78687 48.8073 10.5112 49.9781 10.166L51.6348 9.68325Z" fill="#009EE2"/>
</svg>
