<svg width="193" height="112" viewBox="0 0 193 112" fill="none" xmlns="http://www.w3.org/2000/svg">
<path fill-rule="evenodd" clip-rule="evenodd" d="M96.8804 5.37374V14.2488H98.0048V15.8762H97.63C129.504 36.0033 111.629 42.252 115.379 46.252C109.255 46.1252 103.129 46.1252 96.8804 46.252H78.1271C80.5026 41.8758 62.0043 36.1259 95.0037 15.8762H94.6275V14.2488H95.7547V5.87398C95.5053 5.87398 95.2559 5.87398 95.0037 5.87398C93.6285 5.87398 92.3802 4.99895 91.8786 3.6238C92.5042 4.25079 93.2551 4.49882 94.1301 4.49882C96.004 4.49882 97.63 2.99968 97.63 1.12294C97.63 0.745338 97.5046 0.247978 97.3806 0C98.1288 0.622763 98.5035 1.49628 98.5035 2.37548C98.5035 3.62382 97.878 4.74816 96.8804 5.37374ZM34.6267 54.0014C35.0001 53.2532 32.0018 52.374 37.4996 49.0009C42.7508 52.374 39.8765 53.3786 40.5007 54.0014C38.5 54.0014 36.6274 54.0014 34.6267 54.0014ZM34.3773 59.7513H40.3753V56.4981H34.3773V59.7513ZM35.5017 59.0032H36.6275V57.1236H35.5017V59.0032ZM38.2506 59.0032H39.2509V57.1236H38.2506V59.0032ZM36.8768 59.0032H37.8758V57.1236H36.8768V59.0032ZM33.6249 56.1261H41.2531V55.5019H33.6249V56.1261ZM33.6249 55.0031H41.2531V54.3761H33.6249V55.0031ZM33.6249 60.7489H41.2531V60.2501H33.6249V60.7489ZM33.6249 61.4999H41.2531V61.0011H33.6249V61.4999ZM34.2519 61.6253H40.5007V77.1281H34.2519V61.6253ZM40.5007 78.1299V91.5052H34.2519V78.1299H40.5007ZM40.5007 92.5027V100.756H47.8752V62.5045L60.2516 60.0022V100.758H60.7504V53.2547H62.3777V52.7517H76.8788V48.3754H115.88V52.002V52.7502H130.879V53.2532H132.13V100.756H132.879V59.3752L144.88 62.7539V100.756H153.005V92.5027H159.13V100.756H170.255V87.3797H180.257V100.756H193.004V104.128H0V100.756H13.1259V87.3797H23.2507V100.756H34.2519V92.5027H40.5007ZM22.7506 24.747C22.125 23.6255 27.0014 22.2518 18.1249 16.878C9.50063 22.125 14.2503 23.7495 13.2499 24.747C16.375 24.747 19.6255 24.747 22.7506 24.747ZM23.0027 34.1237H13.3753V28.8711H23.0027V34.1237ZM21.25 33.0008H19.6255V30.0011H21.25V33.0008ZM16.7498 33.0008H15.1252V30.0011H16.7498V33.0008ZM19.0013 33.0008H17.3754V30.0011H19.0013V33.0008ZM24.4991 28.6245H12.0002V27.2508H24.4991V28.6245ZM24.4991 26.6266H12.0002V25.3782H24.4991V26.6266ZM24.4991 35.751H12.0002V34.5027H24.4991V35.751ZM24.4991 37.0008H12.0002V36.1258H24.4991V37.0008ZM193.004 112H0V105.254H193.004V112ZM23.2521 37.2516H13.1273V62.3748H23.2521V37.2516ZM170.633 24.747C171.381 23.6255 166.382 22.2518 175.382 16.878C184.004 22.125 179.256 23.7495 180.257 24.747C177.008 24.747 173.88 24.747 170.633 24.747ZM180.133 34.1237V28.8711H181.508V27.2508H169.005V28.8711H170.382V34.1237H169.005V35.6256V35.751V37.2502H170.255V62.3735H180.257V37.2502H181.508V35.751V35.6256V34.1237H180.133ZM172.257 33.0008H173.88V30.0011H172.257V33.0008ZM176.633 33.0008H178.381V30.0011H176.633V33.0008ZM174.505 33.0008H176.133V30.0011H174.505V33.0008ZM169.005 26.9986H181.508V25.3782H169.005V26.9986ZM180.257 64.0036V85.6256H170.255V64.0036H180.257ZM79.2543 100.756H113.63V55.3765H79.2543V100.756ZM158.882 54.0014C158.507 53.2532 161.505 52.374 156.008 49.0009C150.631 52.374 153.631 53.3786 153.008 54.0014C155.004 54.0014 156.88 54.0014 158.882 54.0014ZM159.131 59.7513H153.132V56.4981H159.131V59.7513ZM157.88 59.0032H156.88V57.1236H157.88V59.0032ZM155.255 59.0032H154.258V57.1236H155.255V59.0032ZM156.506 59.0032H155.506V57.1236H156.506V59.0032ZM159.879 56.2515H152.257V55.5019H159.879V56.2515ZM159.879 55.0031H152.257V54.3761H159.879V55.0031ZM159.879 60.7489H152.257V60.1261H159.879V60.7489ZM159.879 61.6253H159.131V77.1281H153.007V61.6253H152.257V61.0025H159.879V61.6253ZM153.007 78.1299V91.5052H159.131V78.1299H153.007ZM13.1273 64.0036V85.6256H23.2521V64.0036H13.1273ZM56.8771 87.7531V97.003L50.5044 97.1284V88.5027C50.5044 86.8782 53.5026 84.2519 53.628 84.2519C53.752 84.2519 56.8771 86.1286 56.8771 87.7531ZM56.8771 72.2532V81.379L50.5044 82.1285V73.0012C50.5044 71.2485 53.5026 68.6264 53.628 68.6264C53.752 68.501 56.8771 70.3764 56.8771 72.2532ZM136.505 87.7531V97.003L142.88 97.1284V88.5027C142.88 86.8782 139.757 84.2519 139.633 84.2519C139.506 84.2519 136.505 86.1286 136.505 87.7531ZM136.505 72.2532V81.379L142.88 82.1285V73.0012C142.88 71.2485 139.757 68.6264 139.633 68.6264C139.506 68.501 136.505 70.3764 136.505 72.2532ZM117.753 52.002C118.507 50.6269 112.503 49.0023 123.506 42.3746H123.382H123.007V41.8758H123.382V39.6257C123.258 39.6257 123.131 39.6257 123.007 39.6257C122.631 39.6257 122.13 39.2509 122.005 38.8733C122.13 38.9987 122.505 39.1241 122.759 39.1241C123.382 39.1241 123.88 38.6254 123.88 38.1224C123.88 38.0012 123.88 37.8758 123.758 37.7504C124.007 37.8758 124.131 38.1223 124.131 38.4985C124.131 38.8733 124.007 39.1227 123.758 39.3778V41.8744H124.007V42.3732H123.758H123.507C134.007 48.753 128.507 50.7509 129.506 52.0007L117.753 52.002ZM99.6293 74.251V81.379H106.881V74.003C106.881 69.7536 97.0058 64.0036 96.5042 64.0036C96.004 64.0036 86.1286 69.7536 86.1286 74.003V81.379H93.2551V74.251C93.2551 73.0013 96.2548 71.2485 96.5042 71.2485C96.6268 71.2499 99.6293 73.0027 99.6293 74.251ZM99.6293 90.1244V97.1284H93.2538V90.1244C93.2538 88.7493 96.2534 87.0036 96.5028 87.0036C96.6268 87.0036 99.6293 88.7507 99.6293 90.1244ZM106.881 83.8799H86.1286V97.1284H83.1303V59.1286H109.756V97.1284H106.881V83.8799ZM66.6285 75.8756H69.1295V80.6252H66.6285V75.8756ZM66.6285 92.376H69.1295V97.1284H66.6285V92.376ZM124.004 92.376H126.504V97.1284H124.004V92.376ZM124.004 75.8756H126.504V80.6252H124.004V75.8756ZM64.3784 55.7499H66.6285V59.1286H64.3784V55.7499ZM126.88 55.7499H129.254V59.1286H126.88V55.7499ZM123.129 55.7499H125.38V59.1286H123.129V55.7499ZM119.253 55.7499H121.505V59.1286H119.253V55.7499ZM72.1277 55.7499H74.3792V59.1286H72.1277V55.7499ZM68.2531 55.7499H70.5032V59.1286H68.2531V55.7499ZM120.631 83.5023H124.128C123.38 83.8799 122.629 84.5027 122.254 84.7507C121.505 85.3748 120.506 86.5048 120.506 87.6278V97.6285H130.132V87.6278C130.132 86.5048 129.006 85.3748 128.255 84.7507C128.006 84.5027 127.129 83.8799 126.38 83.5023H130.132V82.5048H120.631V83.5023ZM63.1272 66.5003H67.3781C66.6285 66.8779 65.2534 68.0022 64.8786 68.253C64.1262 68.8786 63.0019 70.0002 63.0019 71.1274V81.1254H72.6279V71.1274C72.6279 70.0002 71.5036 68.8786 70.7526 68.253C70.3778 67.8768 69.1294 66.8765 68.2531 66.5003H72.6293V65.5028H63.1287V66.5003H63.1272ZM63.1272 83.5023H66.7525C66.0015 83.8799 65.128 84.5027 64.8786 84.7507C64.1262 85.3748 63.0019 86.5048 63.0019 87.6278V97.6285H72.6279V87.6278C72.6279 86.5048 71.629 85.3748 70.7526 84.7507C70.5032 84.5027 69.7536 83.8799 69.004 83.5023H72.6293V82.5048H63.1287V83.5023H63.1272ZM120.381 66.5003H124.881C124.004 66.8779 122.629 67.8768 122.378 68.253C121.505 68.8786 120.506 70.0002 120.506 71.1274V81.1254H130.132V71.1274C130.132 70.0002 129.006 68.8786 128.255 68.253C127.88 68.0022 126.505 66.8765 125.756 66.5003H129.756V65.5028H120.381V66.5003ZM69.8762 37.7504C70.1284 37.8758 70.2524 38.1223 70.2524 38.4985C70.2524 38.8733 70.1284 39.1227 69.8762 39.3778V41.8744H70.2524V42.3732H69.8762H69.6268H69.5028H69.128V41.8744H69.5028V39.6243C69.3774 39.6243 69.252 39.6243 69.128 39.6243C68.7518 39.6243 68.3771 39.2495 68.1263 38.8719C68.3785 38.9973 68.6264 39.1227 68.8772 39.1227C69.5028 39.1227 70.0016 38.6239 70.0016 38.1209C70.003 38.0012 70.003 37.8758 69.8762 37.7504ZM69.6282 42.3732C80.1278 48.753 74.754 50.7509 75.6276 52.0007H63.8768C64.7532 50.6269 58.627 49.0024 69.6282 42.3732Z" fill="#009EE2"/>
</svg>
