<svg width="21" height="21" viewBox="0 0 21 21" fill="none" xmlns="http://www.w3.org/2000/svg">
<path d="M16.4423 13.2104L14.3465 12.9711C14.1001 12.9421 13.8502 12.9694 13.6159 13.0509C13.3815 13.1324 13.1686 13.2661 12.9933 13.4417L11.4751 14.9607C9.13271 13.7688 7.22882 11.8638 6.03752 9.52014L7.564 7.99282C7.91881 7.63782 8.09209 7.13422 8.03433 6.63887L7.79504 4.5584C7.75047 4.15552 7.55935 3.7831 7.25807 3.5121C6.9568 3.2411 6.56642 3.09047 6.1613 3.08887H4.73384C3.80145 3.08887 3.02584 3.86492 3.0836 4.79783C3.52091 11.8483 9.15649 17.4787 16.1947 17.9163C17.1271 17.9741 17.9028 17.1981 17.9028 16.2652V14.8368C17.911 14.0113 17.2756 13.3013 16.4423 13.2104Z" fill="#0089C6"/>
</svg>
