<svg width="21" height="20" viewBox="0 0 21 20" fill="none" xmlns="http://www.w3.org/2000/svg">
<path d="M10.1874 13.4798C10.0763 13.4798 9.96852 13.459 9.86412 13.4173C9.75962 13.3757 9.67302 13.3201 9.60412 13.2507L5.77072 9.41733C5.61802 9.26453 5.54162 9.07013 5.54162 8.83403C5.54162 8.59793 5.61802 8.40343 5.77072 8.25073C5.92352 8.09793 6.11802 8.02153 6.35412 8.02153C6.59022 8.02153 6.78462 8.09793 6.93742 8.25073L10.1874 11.5007L13.4374 8.25073C13.5902 8.09793 13.7846 8.02153 14.0208 8.02153C14.2569 8.02153 14.4513 8.09793 14.6041 8.25073C14.7569 8.40343 14.8333 8.59793 14.8333 8.83403C14.8333 9.07013 14.7569 9.26453 14.6041 9.41733L10.7708 13.2507C10.6874 13.334 10.5971 13.3932 10.4999 13.4282C10.4027 13.4632 10.2985 13.4804 10.1874 13.4798Z" fill="#202020"/>
</svg>
