<svg width="128" height="129" viewBox="0 0 128 129" fill="none" xmlns="http://www.w3.org/2000/svg">
<g clip-path="url(#clip0_257_3152)">
<path d="M128 0H0V129H128V0Z" fill="white"/>
<path d="M12.48 8.0625H8V12.5775H12.48V8.0625Z" fill="black"/>
<path d="M16.96 8.0625H12.48V12.5775H16.96V8.0625Z" fill="black"/>
<path d="M21.44 8.0625H16.96V12.5775H21.44V8.0625Z" fill="black"/>
<path d="M25.92 8.0625H21.44V12.5775H25.92V8.0625Z" fill="black"/>
<path d="M30.4 8.0625H25.92V12.5775H30.4V8.0625Z" fill="black"/>
<path d="M34.88 8.0625H30.4V12.5775H34.88V8.0625Z" fill="black"/>
<path d="M39.36 8.0625H34.88V12.5775H39.36V8.0625Z" fill="black"/>
<path d="M48.32 8.0625H43.84V12.5775H48.32V8.0625Z" fill="black"/>
<path d="M61.76 8.0625H57.28V12.5775H61.76V8.0625Z" fill="black"/>
<path d="M66.24 8.0625H61.76V12.5775H66.24V8.0625Z" fill="black"/>
<path d="M75.2 8.0625H70.72V12.5775H75.2V8.0625Z" fill="black"/>
<path d="M84.16 8.0625H79.68V12.5775H84.16V8.0625Z" fill="black"/>
<path d="M93.12 8.0625H88.64V12.5775H93.12V8.0625Z" fill="black"/>
<path d="M97.6 8.0625H93.12V12.5775H97.6V8.0625Z" fill="black"/>
<path d="M102.08 8.0625H97.6V12.5775H102.08V8.0625Z" fill="black"/>
<path d="M106.56 8.0625H102.08V12.5775H106.56V8.0625Z" fill="black"/>
<path d="M111.04 8.0625H106.56V12.5775H111.04V8.0625Z" fill="black"/>
<path d="M115.52 8.0625H111.04V12.5775H115.52V8.0625Z" fill="black"/>
<path d="M120 8.0625H115.52V12.5775H120V8.0625Z" fill="black"/>
<path d="M12.48 12.5775H8V17.0925H12.48V12.5775Z" fill="black"/>
<path d="M39.36 12.5775H34.88L34.88 17.0925H39.36V12.5775Z" fill="black"/>
<path d="M52.8 12.5775H48.32V17.0925H52.8V12.5775Z" fill="black"/>
<path d="M66.24 12.5775H61.76V17.0925H66.24V12.5775Z" fill="black"/>
<path d="M79.68 12.5775H75.2L75.2 17.0925H79.68V12.5775Z" fill="black"/>
<path d="M84.16 12.5775H79.68V17.0925H84.16V12.5775Z" fill="black"/>
<path d="M93.12 12.5775H88.64V17.0925H93.12V12.5775Z" fill="black"/>
<path d="M120 12.5775H115.52V17.0925H120V12.5775Z" fill="black"/>
<path d="M12.48 17.0925H8V21.6075H12.48V17.0925Z" fill="black"/>
<path d="M21.44 17.0925H16.96V21.6075H21.44V17.0925Z" fill="black"/>
<path d="M25.92 17.0925H21.44V21.6075H25.92V17.0925Z" fill="black"/>
<path d="M30.4 17.0925H25.92V21.6075H30.4V17.0925Z" fill="black"/>
<path d="M39.36 17.0925H34.88V21.6075H39.36V17.0925Z" fill="black"/>
<path d="M52.8 17.0925H48.32V21.6075H52.8V17.0925Z" fill="black"/>
<path d="M57.28 17.0925H52.8V21.6075H57.28V17.0925Z" fill="black"/>
<path d="M66.24 17.0925H61.76V21.6075H66.24V17.0925Z" fill="black"/>
<path d="M79.68 17.0925H75.2V21.6075H79.68V17.0925Z" fill="black"/>
<path d="M93.12 17.0925H88.64V21.6075H93.12V17.0925Z" fill="black"/>
<path d="M102.08 17.0925H97.6V21.6075H102.08V17.0925Z" fill="black"/>
<path d="M106.56 17.0925H102.08V21.6075H106.56V17.0925Z" fill="black"/>
<path d="M111.04 17.0925H106.56V21.6075H111.04V17.0925Z" fill="black"/>
<path d="M120 17.0925H115.52V21.6075H120V17.0925Z" fill="black"/>
<path d="M12.48 21.6075H8V26.1225H12.48V21.6075Z" fill="black"/>
<path d="M21.44 21.6075H16.96V26.1225H21.44V21.6075Z" fill="black"/>
<path d="M25.92 21.6075H21.44V26.1225H25.92V21.6075Z" fill="black"/>
<path d="M30.4 21.6075H25.92V26.1225H30.4V21.6075Z" fill="black"/>
<path d="M39.36 21.6075H34.88V26.1225H39.36V21.6075Z" fill="black"/>
<path d="M48.32 21.6075H43.84V26.1225H48.32V21.6075Z" fill="black"/>
<path d="M52.8 21.6075H48.32V26.1225H52.8V21.6075Z" fill="black"/>
<path d="M66.24 21.6075H61.76V26.1225H66.24V21.6075Z" fill="black"/>
<path d="M75.2 21.6075H70.72V26.1225H75.2L75.2 21.6075Z" fill="black"/>
<path d="M79.68 21.6075H75.2L75.2 26.1225H79.68V21.6075Z" fill="black"/>
<path d="M84.16 21.6075H79.68V26.1225H84.16V21.6075Z" fill="black"/>
<path d="M93.12 21.6075H88.64V26.1225H93.12V21.6075Z" fill="black"/>
<path d="M102.08 21.6075H97.6V26.1225H102.08V21.6075Z" fill="black"/>
<path d="M106.56 21.6075H102.08V26.1225H106.56V21.6075Z" fill="black"/>
<path d="M111.04 21.6075H106.56V26.1225H111.04V21.6075Z" fill="black"/>
<path d="M120 21.6075H115.52V26.1225H120V21.6075Z" fill="black"/>
<path d="M12.48 26.1225H8V30.6375H12.48V26.1225Z" fill="black"/>
<path d="M21.44 26.1225H16.96V30.6375H21.44V26.1225Z" fill="black"/>
<path d="M25.92 26.1225H21.44V30.6375H25.92V26.1225Z" fill="black"/>
<path d="M30.4 26.1225H25.92V30.6375H30.4V26.1225Z" fill="black"/>
<path d="M39.36 26.1225H34.88V30.6375H39.36V26.1225Z" fill="black"/>
<path d="M57.28 26.1225H52.8V30.6375H57.28V26.1225Z" fill="black"/>
<path d="M61.76 26.1225H57.28V30.6375H61.76V26.1225Z" fill="black"/>
<path d="M70.72 26.1225H66.24V30.6375H70.72V26.1225Z" fill="black"/>
<path d="M75.2 26.1225H70.72V30.6375H75.2V26.1225Z" fill="black"/>
<path d="M79.68 26.1225H75.2V30.6375H79.68V26.1225Z" fill="black"/>
<path d="M93.12 26.1225H88.64V30.6375H93.12V26.1225Z" fill="black"/>
<path d="M102.08 26.1225H97.6V30.6375H102.08V26.1225Z" fill="black"/>
<path d="M106.56 26.1225H102.08V30.6375H106.56V26.1225Z" fill="black"/>
<path d="M111.04 26.1225H106.56V30.6375H111.04V26.1225Z" fill="black"/>
<path d="M120 26.1225H115.52V30.6375H120V26.1225Z" fill="black"/>
<path d="M12.48 30.6375H8V35.1525H12.48V30.6375Z" fill="black"/>
<path d="M39.36 30.6375H34.88V35.1525H39.36V30.6375Z" fill="black"/>
<path d="M48.32 30.6375H43.84V35.1525H48.32V30.6375Z" fill="black"/>
<path d="M52.8 30.6375H48.32V35.1525H52.8V30.6375Z" fill="black"/>
<path d="M66.24 30.6375H61.76V35.1525H66.24V30.6375Z" fill="black"/>
<path d="M93.12 30.6375H88.64V35.1525H93.12V30.6375Z" fill="black"/>
<path d="M120 30.6375H115.52V35.1525H120V30.6375Z" fill="black"/>
<path d="M12.48 35.1525H8V39.6675H12.48V35.1525Z" fill="black"/>
<path d="M16.96 35.1525L12.48 35.1525V39.6675H16.96V35.1525Z" fill="black"/>
<path d="M21.44 35.1525H16.96V39.6675H21.44V35.1525Z" fill="black"/>
<path d="M25.92 35.1525H21.44V39.6675H25.92V35.1525Z" fill="black"/>
<path d="M30.4 35.1525H25.92V39.6675H30.4V35.1525Z" fill="black"/>
<path d="M34.88 35.1525L30.4 35.1525V39.6675H34.88L34.88 35.1525Z" fill="black"/>
<path d="M39.36 35.1525H34.88L34.88 39.6675H39.36V35.1525Z" fill="black"/>
<path d="M48.32 35.1525H43.84V39.6675H48.32V35.1525Z" fill="black"/>
<path d="M57.28 35.1525L52.8 35.1525V39.6675H57.28V35.1525Z" fill="black"/>
<path d="M66.24 35.1525H61.76V39.6675H66.24V35.1525Z" fill="black"/>
<path d="M75.2 35.1525H70.72V39.6675H75.2V35.1525Z" fill="black"/>
<path d="M84.16 35.1525H79.68V39.6675H84.16V35.1525Z" fill="black"/>
<path d="M93.12 35.1525H88.64V39.6675H93.12V35.1525Z" fill="black"/>
<path d="M97.6 35.1525L93.12 35.1525V39.6675H97.6V35.1525Z" fill="black"/>
<path d="M102.08 35.1525H97.6V39.6675H102.08V35.1525Z" fill="black"/>
<path d="M106.56 35.1525H102.08V39.6675H106.56V35.1525Z" fill="black"/>
<path d="M111.04 35.1525H106.56V39.6675H111.04V35.1525Z" fill="black"/>
<path d="M115.52 35.1525L111.04 35.1525V39.6675H115.52V35.1525Z" fill="black"/>
<path d="M120 35.1525H115.52V39.6675H120V35.1525Z" fill="black"/>
<path d="M57.28 39.6675H52.8V44.1825H57.28V39.6675Z" fill="black"/>
<path d="M66.24 39.6675H61.76V44.1825H66.24V39.6675Z" fill="black"/>
<path d="M70.72 39.6675H66.24V44.1825H70.72V39.6675Z" fill="black"/>
<path d="M79.68 39.6675H75.2L75.2 44.1825H79.68V39.6675Z" fill="black"/>
<path d="M34.88 44.1825H30.4V48.6975H34.88V44.1825Z" fill="black"/>
<path d="M39.36 44.1825H34.88V48.6975H39.36V44.1825Z" fill="black"/>
<path d="M48.32 44.1825H43.84V48.6975H48.32V44.1825Z" fill="black"/>
<path d="M52.8 44.1825H48.32V48.6975H52.8V44.1825Z" fill="black"/>
<path d="M57.28 44.1825H52.8V48.6975H57.28V44.1825Z" fill="black"/>
<path d="M66.24 44.1825H61.76V48.6975H66.24V44.1825Z" fill="black"/>
<path d="M70.72 44.1825H66.24V48.6975H70.72V44.1825Z" fill="black"/>
<path d="M75.2 44.1825H70.72V48.6975H75.2L75.2 44.1825Z" fill="black"/>
<path d="M79.68 44.1825H75.2L75.2 48.6975H79.68V44.1825Z" fill="black"/>
<path d="M84.16 44.1825H79.68V48.6975H84.16V44.1825Z" fill="black"/>
<path d="M88.64 44.1825H84.16V48.6975H88.64V44.1825Z" fill="black"/>
<path d="M97.6 44.1825H93.12V48.6975H97.6V44.1825Z" fill="black"/>
<path d="M106.56 44.1825H102.08V48.6975H106.56V44.1825Z" fill="black"/>
<path d="M120 44.1825H115.52V48.6975H120V44.1825Z" fill="black"/>
<path d="M16.96 48.6975H12.48V53.2125H16.96V48.6975Z" fill="black"/>
<path d="M30.4 48.6975H25.92V53.2125H30.4V48.6975Z" fill="black"/>
<path d="M34.88 48.6975H30.4V53.2125H34.88V48.6975Z" fill="black"/>
<path d="M43.84 48.6975H39.36V53.2125H43.84V48.6975Z" fill="black"/>
<path d="M48.32 48.6975H43.84V53.2125H48.32V48.6975Z" fill="black"/>
<path d="M61.76 48.6975H57.28V53.2125H61.76V48.6975Z" fill="black"/>
<path d="M70.72 48.6975H66.24V53.2125H70.72V48.6975Z" fill="black"/>
<path d="M93.12 48.6975H88.64V53.2125H93.12V48.6975Z" fill="black"/>
<path d="M97.6 48.6975H93.12V53.2125H97.6V48.6975Z" fill="black"/>
<path d="M102.08 48.6975H97.6V53.2125H102.08V48.6975Z" fill="black"/>
<path d="M111.04 48.6975H106.56V53.2125H111.04V48.6975Z" fill="black"/>
<path d="M115.52 48.6975H111.04V53.2125H115.52V48.6975Z" fill="black"/>
<path d="M12.48 53.2125H8V57.7275H12.48V53.2125Z" fill="black"/>
<path d="M16.96 53.2125H12.48V57.7275H16.96V53.2125Z" fill="black"/>
<path d="M25.92 53.2125H21.44V57.7275H25.92V53.2125Z" fill="black"/>
<path d="M34.88 53.2125H30.4V57.7275H34.88V53.2125Z" fill="black"/>
<path d="M39.36 53.2125H34.88V57.7275H39.36V53.2125Z" fill="black"/>
<path d="M43.84 53.2125H39.36V57.7275H43.84V53.2125Z" fill="black"/>
<path d="M48.32 53.2125H43.84V57.7275H48.32V53.2125Z" fill="black"/>
<path d="M52.8 53.2125H48.32V57.7275H52.8V53.2125Z" fill="black"/>
<path d="M75.2 53.2125H70.72V57.7275H75.2V53.2125Z" fill="black"/>
<path d="M79.68 53.2125H75.2V57.7275H79.68V53.2125Z" fill="black"/>
<path d="M84.16 53.2125H79.68V57.7275H84.16V53.2125Z" fill="black"/>
<path d="M93.12 53.2125H88.64V57.7275H93.12V53.2125Z" fill="black"/>
<path d="M97.6 53.2125H93.12V57.7275H97.6V53.2125Z" fill="black"/>
<path d="M115.52 53.2125H111.04V57.7275H115.52V53.2125Z" fill="black"/>
<path d="M120 53.2125H115.52V57.7275H120V53.2125Z" fill="black"/>
<path d="M16.96 57.7275H12.48V62.2425H16.96V57.7275Z" fill="black"/>
<path d="M21.44 57.7275H16.96V62.2425H21.44V57.7275Z" fill="black"/>
<path d="M25.92 57.7275H21.44V62.2425H25.92V57.7275Z" fill="black"/>
<path d="M61.76 57.7275H57.28V62.2425H61.76V57.7275Z" fill="black"/>
<path d="M70.72 57.7275H66.24V62.2425H70.72V57.7275Z" fill="black"/>
<path d="M75.2 57.7275H70.72V62.2425H75.2V57.7275Z" fill="black"/>
<path d="M79.68 57.7275H75.2V62.2425H79.68V57.7275Z" fill="black"/>
<path d="M93.12 57.7275H88.64V62.2425H93.12V57.7275Z" fill="black"/>
<path d="M106.56 57.7275H102.08V62.2425H106.56V57.7275Z" fill="black"/>
<path d="M21.44 62.2425H16.96V66.7575H21.44V62.2425Z" fill="black"/>
<path d="M25.92 62.2425H21.44V66.7575H25.92V62.2425Z" fill="black"/>
<path d="M30.4 62.2425H25.92V66.7575H30.4V62.2425Z" fill="black"/>
<path d="M34.88 62.2425H30.4V66.7575H34.88V62.2425Z" fill="black"/>
<path d="M39.36 62.2425H34.88V66.7575H39.36V62.2425Z" fill="black"/>
<path d="M61.76 62.2425H57.28V66.7575H61.76V62.2425Z" fill="black"/>
<path d="M84.16 62.2425H79.68V66.7575H84.16V62.2425Z" fill="black"/>
<path d="M88.64 62.2425H84.16V66.7575H88.64V62.2425Z" fill="black"/>
<path d="M93.12 62.2425H88.64V66.7575H93.12V62.2425Z" fill="black"/>
<path d="M97.6 62.2425H93.12V66.7575H97.6V62.2425Z" fill="black"/>
<path d="M120 62.2425H115.52V66.7575H120V62.2425Z" fill="black"/>
<path d="M30.4 66.7575H25.92V71.2725H30.4V66.7575Z" fill="black"/>
<path d="M34.88 66.7575H30.4V71.2725H34.88V66.7575Z" fill="black"/>
<path d="M48.32 66.7575H43.84V71.2725H48.32V66.7575Z" fill="black"/>
<path d="M52.8 66.7575H48.32V71.2725H52.8V66.7575Z" fill="black"/>
<path d="M57.28 66.7575H52.8V71.2725H57.28V66.7575Z" fill="black"/>
<path d="M61.76 66.7575H57.28V71.2725H61.76V66.7575Z" fill="black"/>
<path d="M66.24 66.7575H61.76V71.2725H66.24V66.7575Z" fill="black"/>
<path d="M70.72 66.7575H66.24V71.2725H70.72V66.7575Z" fill="black"/>
<path d="M79.68 66.7575H75.2V71.2725H79.68V66.7575Z" fill="black"/>
<path d="M93.12 66.7575H88.64V71.2725H93.12V66.7575Z" fill="black"/>
<path d="M25.92 71.2725H21.44V75.7875H25.92V71.2725Z" fill="black"/>
<path d="M39.36 71.2725H34.88L34.88 75.7875H39.36V71.2725Z" fill="black"/>
<path d="M48.32 71.2725H43.84V75.7875H48.32V71.2725Z" fill="black"/>
<path d="M52.8 71.2725H48.32V75.7875H52.8V71.2725Z" fill="black"/>
<path d="M61.76 71.2725H57.28V75.7875H61.76V71.2725Z" fill="black"/>
<path d="M75.2 71.2725H70.72V75.7875H75.2L75.2 71.2725Z" fill="black"/>
<path d="M79.68 71.2725H75.2L75.2 75.7875H79.68V71.2725Z" fill="black"/>
<path d="M88.64 71.2725H84.16V75.7875H88.64V71.2725Z" fill="black"/>
<path d="M93.12 71.2725H88.64V75.7875H93.12V71.2725Z" fill="black"/>
<path d="M115.52 71.2725H111.04V75.7875H115.52V71.2725Z" fill="black"/>
<path d="M12.48 75.7875H8V80.3025H12.48V75.7875Z" fill="black"/>
<path d="M16.96 75.7875H12.48V80.3025H16.96V75.7875Z" fill="black"/>
<path d="M25.92 75.7875H21.44V80.3025H25.92V75.7875Z" fill="black"/>
<path d="M30.4 75.7875L25.92 75.7875V80.3025H30.4V75.7875Z" fill="black"/>
<path d="M34.88 75.7875L30.4 75.7875V80.3025H34.88L34.88 75.7875Z" fill="black"/>
<path d="M48.32 75.7875H43.84V80.3025H48.32V75.7875Z" fill="black"/>
<path d="M66.24 75.7875L61.76 75.7875V80.3025H66.24V75.7875Z" fill="black"/>
<path d="M84.16 75.7875H79.68V80.3025H84.16V75.7875Z" fill="black"/>
<path d="M88.64 75.7875H84.16V80.3025H88.64V75.7875Z" fill="black"/>
<path d="M93.12 75.7875H88.64V80.3025H93.12V75.7875Z" fill="black"/>
<path d="M115.52 75.7875H111.04V80.3025H115.52V75.7875Z" fill="black"/>
<path d="M120 75.7875L115.52 75.7875V80.3025H120V75.7875Z" fill="black"/>
<path d="M16.96 80.3025H12.48V84.8175H16.96V80.3025Z" fill="black"/>
<path d="M25.92 80.3025H21.44V84.8175H25.92V80.3025Z" fill="black"/>
<path d="M34.88 80.3025H30.4V84.8175H34.88V80.3025Z" fill="black"/>
<path d="M39.36 80.3025H34.88V84.8175H39.36V80.3025Z" fill="black"/>
<path d="M48.32 80.3025H43.84V84.8175H48.32V80.3025Z" fill="black"/>
<path d="M57.28 80.3025H52.8V84.8175H57.28V80.3025Z" fill="black"/>
<path d="M66.24 80.3025H61.76V84.8175H66.24V80.3025Z" fill="black"/>
<path d="M75.2 80.3025H70.72V84.8175H75.2V80.3025Z" fill="black"/>
<path d="M79.68 80.3025H75.2V84.8175H79.68V80.3025Z" fill="black"/>
<path d="M84.16 80.3025H79.68V84.8175H84.16V80.3025Z" fill="black"/>
<path d="M88.64 80.3025H84.16V84.8175H88.64V80.3025Z" fill="black"/>
<path d="M93.12 80.3025H88.64V84.8175H93.12V80.3025Z" fill="black"/>
<path d="M97.6 80.3025H93.12V84.8175H97.6V80.3025Z" fill="black"/>
<path d="M102.08 80.3025H97.6V84.8175H102.08V80.3025Z" fill="black"/>
<path d="M111.04 80.3025H106.56V84.8175H111.04V80.3025Z" fill="black"/>
<path d="M115.52 80.3025H111.04V84.8175H115.52V80.3025Z" fill="black"/>
<path d="M120 80.3025H115.52V84.8175H120V80.3025Z" fill="black"/>
<path d="M48.32 84.8175H43.84V89.3325H48.32V84.8175Z" fill="black"/>
<path d="M52.8 84.8175H48.32V89.3325H52.8V84.8175Z" fill="black"/>
<path d="M61.76 84.8175H57.28V89.3325H61.76V84.8175Z" fill="black"/>
<path d="M70.72 84.8175H66.24V89.3325H70.72V84.8175Z" fill="black"/>
<path d="M79.68 84.8175H75.2L75.2 89.3325H79.68V84.8175Z" fill="black"/>
<path d="M84.16 84.8175H79.68V89.3325H84.16V84.8175Z" fill="black"/>
<path d="M102.08 84.8175H97.6V89.3325H102.08V84.8175Z" fill="black"/>
<path d="M115.52 84.8175H111.04V89.3325H115.52V84.8175Z" fill="black"/>
<path d="M12.48 89.3325H8V93.8475H12.48V89.3325Z" fill="black"/>
<path d="M16.96 89.3325H12.48V93.8475H16.96V89.3325Z" fill="black"/>
<path d="M21.44 89.3325H16.96V93.8475H21.44V89.3325Z" fill="black"/>
<path d="M25.92 89.3325H21.44V93.8475H25.92V89.3325Z" fill="black"/>
<path d="M30.4 89.3325H25.92V93.8475H30.4V89.3325Z" fill="black"/>
<path d="M34.88 89.3325H30.4V93.8475H34.88V89.3325Z" fill="black"/>
<path d="M39.36 89.3325H34.88V93.8475H39.36V89.3325Z" fill="black"/>
<path d="M52.8 89.3325H48.32V93.8475H52.8V89.3325Z" fill="black"/>
<path d="M57.28 89.3325H52.8V93.8475H57.28V89.3325Z" fill="black"/>
<path d="M66.24 89.3325H61.76V93.8475H66.24V89.3325Z" fill="black"/>
<path d="M70.72 89.3325H66.24V93.8475H70.72V89.3325Z" fill="black"/>
<path d="M79.68 89.3325H75.2V93.8475H79.68V89.3325Z" fill="black"/>
<path d="M84.16 89.3325H79.68V93.8475H84.16V89.3325Z" fill="black"/>
<path d="M93.12 89.3325H88.64V93.8475H93.12V89.3325Z" fill="black"/>
<path d="M102.08 89.3325H97.6V93.8475H102.08V89.3325Z" fill="black"/>
<path d="M115.52 89.3325H111.04V93.8475H115.52V89.3325Z" fill="black"/>
<path d="M120 89.3325H115.52V93.8475H120V89.3325Z" fill="black"/>
<path d="M12.48 93.8475H8V98.3625H12.48V93.8475Z" fill="black"/>
<path d="M39.36 93.8475H34.88L34.88 98.3625H39.36V93.8475Z" fill="black"/>
<path d="M48.32 93.8475H43.84V98.3625H48.32V93.8475Z" fill="black"/>
<path d="M66.24 93.8475H61.76V98.3625H66.24V93.8475Z" fill="black"/>
<path d="M70.72 93.8475H66.24V98.3625H70.72V93.8475Z" fill="black"/>
<path d="M75.2 93.8475H70.72V98.3625H75.2L75.2 93.8475Z" fill="black"/>
<path d="M84.16 93.8475H79.68V98.3625H84.16V93.8475Z" fill="black"/>
<path d="M102.08 93.8475H97.6V98.3625H102.08V93.8475Z" fill="black"/>
<path d="M106.56 93.8475H102.08V98.3625H106.56V93.8475Z" fill="black"/>
<path d="M111.04 93.8475H106.56V98.3625H111.04V93.8475Z" fill="black"/>
<path d="M120 93.8475H115.52V98.3625H120V93.8475Z" fill="black"/>
<path d="M12.48 98.3625H8V102.878H12.48V98.3625Z" fill="black"/>
<path d="M21.44 98.3625H16.96V102.878H21.44V98.3625Z" fill="black"/>
<path d="M25.92 98.3625H21.44V102.878H25.92V98.3625Z" fill="black"/>
<path d="M30.4 98.3625H25.92V102.878H30.4V98.3625Z" fill="black"/>
<path d="M39.36 98.3625H34.88V102.878H39.36V98.3625Z" fill="black"/>
<path d="M61.76 98.3625H57.28V102.878H61.76V98.3625Z" fill="black"/>
<path d="M75.2 98.3625H70.72V102.878H75.2V98.3625Z" fill="black"/>
<path d="M79.68 98.3625H75.2V102.878H79.68V98.3625Z" fill="black"/>
<path d="M84.16 98.3625H79.68V102.878H84.16V98.3625Z" fill="black"/>
<path d="M88.64 98.3625H84.16V102.878H88.64V98.3625Z" fill="black"/>
<path d="M93.12 98.3625H88.64V102.878H93.12V98.3625Z" fill="black"/>
<path d="M97.6 98.3625H93.12V102.878H97.6V98.3625Z" fill="black"/>
<path d="M102.08 98.3625H97.6V102.878H102.08V98.3625Z" fill="black"/>
<path d="M106.56 98.3625H102.08V102.878H106.56V98.3625Z" fill="black"/>
<path d="M111.04 98.3625H106.56V102.878H111.04V98.3625Z" fill="black"/>
<path d="M12.48 102.878H8V107.393H12.48V102.878Z" fill="black"/>
<path d="M21.44 102.878H16.96V107.393H21.44V102.878Z" fill="black"/>
<path d="M25.92 102.878H21.44V107.393H25.92V102.878Z" fill="black"/>
<path d="M30.4 102.878H25.92V107.393H30.4V102.878Z" fill="black"/>
<path d="M39.36 102.878H34.88V107.393H39.36V102.878Z" fill="black"/>
<path d="M66.24 102.878H61.76V107.393H66.24V102.878Z" fill="black"/>
<path d="M70.72 102.878H66.24V107.393H70.72V102.878Z" fill="black"/>
<path d="M84.16 102.878H79.68V107.393H84.16V102.878Z" fill="black"/>
<path d="M88.64 102.878H84.16V107.393H88.64V102.878Z" fill="black"/>
<path d="M93.12 102.878H88.64V107.393H93.12V102.878Z" fill="black"/>
<path d="M97.6 102.878H93.12V107.393H97.6V102.878Z" fill="black"/>
<path d="M102.08 102.878H97.6V107.393H102.08V102.878Z" fill="black"/>
<path d="M106.56 102.878H102.08V107.393H106.56V102.878Z" fill="black"/>
<path d="M115.52 102.878H111.04V107.393H115.52V102.878Z" fill="black"/>
<path d="M12.48 107.393H8V111.908H12.48V107.393Z" fill="black"/>
<path d="M21.44 107.393H16.96V111.908H21.44V107.393Z" fill="black"/>
<path d="M25.92 107.393H21.44V111.908H25.92V107.393Z" fill="black"/>
<path d="M30.4 107.393H25.92V111.908H30.4V107.393Z" fill="black"/>
<path d="M39.36 107.393H34.88V111.908H39.36V107.393Z" fill="black"/>
<path d="M70.72 107.393H66.24V111.908H70.72V107.393Z" fill="black"/>
<path d="M75.2 107.393H70.72V111.908H75.2V107.393Z" fill="black"/>
<path d="M84.16 107.393H79.68V111.908H84.16V107.393Z" fill="black"/>
<path d="M97.6 107.393H93.12V111.908H97.6V107.393Z" fill="black"/>
<path d="M106.56 107.393H102.08V111.908H106.56V107.393Z" fill="black"/>
<path d="M111.04 107.393H106.56V111.908H111.04V107.393Z" fill="black"/>
<path d="M12.48 111.908H8V116.423H12.48V111.908Z" fill="black"/>
<path d="M39.36 111.908H34.88V116.423H39.36V111.908Z" fill="black"/>
<path d="M57.28 111.908H52.8V116.423H57.28V111.908Z" fill="black"/>
<path d="M66.24 111.908H61.76V116.423H66.24V111.908Z" fill="black"/>
<path d="M79.68 111.908H75.2L75.2 116.423H79.68V111.908Z" fill="black"/>
<path d="M93.12 111.908H88.64V116.423H93.12V111.908Z" fill="black"/>
<path d="M97.6 111.908H93.12V116.423H97.6V111.908Z" fill="black"/>
<path d="M120 111.908H115.52V116.423H120V111.908Z" fill="black"/>
<path d="M12.48 116.423H8V120.938H12.48V116.423Z" fill="black"/>
<path d="M16.96 116.423H12.48V120.938H16.96V116.423Z" fill="black"/>
<path d="M21.44 116.423H16.96V120.938H21.44V116.423Z" fill="black"/>
<path d="M25.92 116.423H21.44V120.938H25.92V116.423Z" fill="black"/>
<path d="M30.4 116.423H25.92V120.938H30.4V116.423Z" fill="black"/>
<path d="M34.88 116.423H30.4V120.938H34.88L34.88 116.423Z" fill="black"/>
<path d="M39.36 116.423H34.88L34.88 120.938H39.36V116.423Z" fill="black"/>
<path d="M52.8 116.423H48.32V120.938H52.8V116.423Z" fill="black"/>
<path d="M57.28 116.423H52.8V120.938H57.28V116.423Z" fill="black"/>
<path d="M66.24 116.423H61.76V120.938H66.24V116.423Z" fill="black"/>
<path d="M70.72 116.423H66.24V120.938H70.72V116.423Z" fill="black"/>
<path d="M75.2 116.423H70.72V120.938H75.2L75.2 116.423Z" fill="black"/>
<path d="M88.64 116.423H84.16V120.938H88.64V116.423Z" fill="black"/>
<path d="M93.12 116.423H88.64V120.938H93.12V116.423Z" fill="black"/>
<path d="M97.6 116.423H93.12V120.938H97.6V116.423Z" fill="black"/>
<path d="M102.08 116.423H97.6V120.938H102.08V116.423Z" fill="black"/>
<path d="M111.04 116.423H106.56V120.938H111.04V116.423Z" fill="black"/>
<path d="M120 116.423H115.52V120.938H120V116.423Z" fill="black"/>
</g>
<defs>
<clipPath id="clip0_257_3152">
<rect width="128" height="129" fill="white"/>
</clipPath>
</defs>
</svg>
