<svg width="32" height="32" viewBox="0 0 32 32" fill="none" xmlns="http://www.w3.org/2000/svg">
<path d="M16.033 0C7.169 0 0 7.169 0 16.033C0 24.897 7.169 32.066 16.033 32.066C24.897 32.066 32.066 24.897 32.066 16.033C32.001 7.169 24.832 0 16.033 0ZM22.876 12.318C22.876 12.448 22.876 12.644 22.876 12.774C22.876 17.662 19.291 23.332 12.839 23.332C10.884 23.332 8.994 22.745 7.43 21.637C7.691 21.702 8.017 21.702 8.277 21.702C9.906 21.702 11.47 21.115 12.644 20.073C11.08 20.008 9.776 18.965 9.32 17.466C9.841 17.596 10.428 17.531 10.949 17.401C9.255 16.945 8.081 15.446 8.081 13.686C8.537 14.012 9.124 14.142 9.71 14.207C8.146 13.034 7.69 10.883 8.602 9.124C10.296 11.47 12.969 12.969 15.901 13.165C15.836 12.904 15.836 12.578 15.836 12.318C15.771 10.363 17.335 8.668 19.29 8.603H19.355C20.333 8.603 21.31 9.059 21.962 9.841C22.744 9.711 23.526 9.385 24.178 8.994C23.917 9.841 23.396 10.558 22.614 11.014C23.331 10.949 23.983 10.753 24.634 10.427C24.178 11.209 23.591 11.796 22.874 12.317L22.876 12.318Z" fill="#B7B7B7"/>
</svg>
