<svg width="32" height="32" viewBox="0 0 32 32" fill="none" xmlns="http://www.w3.org/2000/svg">
<path d="M14.012 19.031L19.226 16.033L14.012 13.035V19.031ZM16.033 0C7.169 0 0 7.169 0 16.033C0 24.897 7.169 32.066 16.033 32.066C24.897 32.066 32.066 24.897 32.066 16.033C32.001 7.169 24.832 0 16.033 0ZM25.613 20.855C25.352 21.702 24.701 22.354 23.853 22.615C22.289 23.006 16.032 23.006 16.032 23.006C16.032 23.006 9.775 23.006 8.211 22.55C7.364 22.289 6.712 21.638 6.451 20.79C6.19 19.226 6.06 17.597 6.06 15.967C6.06 14.337 6.19 12.774 6.451 11.144C6.712 10.297 7.363 9.58 8.211 9.384C9.775 8.993 16.032 8.993 16.032 8.993C16.032 8.993 22.289 8.993 23.853 9.449C24.7 9.71 25.352 10.361 25.613 11.209C25.874 12.773 26.069 14.402 26.004 16.032C26.004 17.661 25.874 19.225 25.613 20.855Z" fill="#B7B7B7"/>
</svg>
